<mxfile host="65bd71144e">
    <diagram id="HIP3nbAZw_EuaXWnEj3U" name="Page-1">
        <mxGraphModel dx="332" dy="532" grid="1" gridSize="10" guides="1" tooltips="1" connect="1" arrows="1" fold="1" page="1" pageScale="1" pageWidth="850" pageHeight="1100" background="#ffffff" math="0" shadow="0">
            <root>
                <mxCell id="0"/>
                <mxCell id="1" parent="0"/>
                <mxCell id="7" value="http://ics2o.mths.ca" style="swimlane;whiteSpace=wrap;html=1;" parent="1" vertex="1">
                    <mxGeometry x="40" y="40" width="1260" height="969" as="geometry"/>
                </mxCell>
                <mxCell id="8" value="&lt;font style=&quot;font-size: 20px;&quot;&gt;Cookie Clicker, in JS&lt;/font&gt;" style="text;html=1;align=center;verticalAlign=middle;resizable=0;points=[];autosize=1;strokeColor=none;fillColor=none;" parent="7" vertex="1">
                    <mxGeometry x="525" y="70" width="210" height="40" as="geometry"/>
                </mxCell>
                <mxCell id="15" value="" style="shape=image;verticalLabelPosition=bottom;labelBackgroundColor=default;verticalAlign=top;aspect=fixed;imageAspect=0;image=data:image/png,iVBORw0KGgoAAAANSUhEUgAAAM8AAADJCAIAAAALuvEVAAAAAXNSR0IArs4c6QAAIABJREFUeJzsvWmzZNl1Hbb2Pufem5lvqnnoqq6qnhs9Ao2BIAiAEE1whhhUSDKtwWGFhvBHRcjhkL849AvsD3KE7VCE7QibsmyRmkWBpCQIpAyRmLqBHoBGzzVXvTlfTvees/fyh3PzVWMg2Q2hGxTZpzLyVXdlvjutu8e11xWSeG+9t96VpT/sHXhv/Qla76HtvfXurffQ9t5699Z7aHtvvXsr/rB34I/o+gNSJwFJioCAgABBLN8BCCAEAJHyJm/6x/4Db377E7TeQ9vvu3jnZ4GWAxmeyY42p83pC+a5d3PvOqREyzS6i7k4hQ5AtB6GelQ1q6FZ1WZF6iFCDVGwIE0gACjswdmvP6YwfA9t370IACTEgYX4FHaAPHGbMu2zG3Oxz3YX3ZTdzNuZzRc277zN3pnlnLNZzm5m5kIEDSpViCNUR6w65oN1XVlvVo/W66eatVNh5aiO1kM9ogaBQP6YBzbyXr0NIItXBAQZnIJj+B5sH92ezzd9etunO1iMvZ3YYpYXc29b5kQzJPNkniwn9+Q092x0czOa0R3mMIPBXY3RJWqsYj0Ig3UdHsFgDYP1uHZscPrh4flHqmOX4uqahEpFKJDeI+OPjbF7D20EHeyABfwm02W2N7DY4Xzs8wObHvhs7LMDX8yRO8/ZspkZjaSTRCbdPbtlYyYIcdLp5nSnsbhXMcAdThIO0J0OEoBQAqo6DI/ryhEMVuL6XcPzTw0uPTI8c6leP4lqQIj+ccnm/iSjzcEFfMy8hXQN3XU/uJb2b/pkE4sZu+xt523H1BUrRRFSCjxJSDGJ5nTCvYcXCSecdGd5zwajOGCEuxfzl41GZtBFaCWHMA9OhVY6GGoz9JWTfvqhY49+7OSDH2yOX9Bq+J1+lv/pWbw/OWhzQEABCLSQHdgNdNc5v2WT275/y/Zu2mTs7Qwp9YmmOc1AQgSihEIjAFmmo+7FLpIESKeTRsssxq8YM3cY6A4jHXD3bJbMMmlcfgykuYkb3Mt3lBJVKXWdRqeru5449fgnNt73Y4MTF7VqlrlFSTD+U8Lcnxy0EXD4BH4Z+TXOr2G66Qdb3d5WHu9xMUObLGfSVUU1iOgymhOoigRqgARRBYDlWaN7udgkAacZLbsZzUGCdHOSNHczOmFkoqf+M6TByWIOMz2xxHvZ6Uaaw+kQqkozQrUyuvvJc5/+r9Ye+BEdrEHCMp77ziso8kcUgH8S0EYwgbvw19i+aPuXfXfL9nZ8csB2xtTCnPRyzURFRESUISBWogEUgoRAo4TYo21ZYyO8XHKSpMMK4Jx+aPEclt2N7jSn0ZN7ypYzl6YMdBrhzkwkz4bcocSCnoqZJF0g8CAaQjhy/uhHfunkUz8zOPOA1iMJ4buP+Y8m4P4Yo61UyObgJrrXOHuZB9dsbzvvbNtk37o5PCkBqIiIlpeKqmiABo8VQ4QoRPtrJyqxUg2iII1OEHQeVkxIwo059wFcQRsN5swG9kC0nK0rti336YKTZu5Odzcyu3XGREtmnXlnnjOt+G0hJcDrYN3oVP3IT1345J+v73qwWj2msYGWJFb6O+ePHuB+wGh7K7/tnT8LBAyYwm4gvcrZq773uu1s23jPZ1NrO3e6QEVVVTVARVWgIjFKqMo7QqQEQiCqIagINGjVQAOEPEwvDUszBgFpiZ7d0h3v5g53pkTLyAU3mdk8Z7fsZnC4udPczHr7Z+zMumSteWfeZU/u5m6g0bOXjFgFGoIPj1X3fejEh39x44GPDI6fkbpR6GEo90cNcO8s2n6/EPYdOwsEMjiD30L3LU5ett03bO+2HSw4m3vqhISoq1AEqqoqQaESQpAQNNRS1RIjQqQGQilBVGOMdIeqxhqikN5wgQoq/M7G6aQIPSHPSCsQhGXv5uw6dsmzCR3utOyWvSSz5k53MzNzN5oxZVtk75J1mcmZ3ZOzfCMVEwjLBqcIRYM3R4cPfvjYh/706r0fWjl1PtTDw85EaZ+9M2f7ba93Bm3mPm+tbenUGGVloFV8M8J+oGgrl76UQmewW+xe4fgl23nd926lg21fdJIghKgiRImRqgiCIAVtoiohQqPGSmKNEKFKVWqERBVRKa0rh4BO7yzNOzeLzaAarkjV9LWJ0t4KkZ6RZ7AsBJiQF97NuJh5MhAghcV1WqnV0eBe0JYP0eZd9i55StYmZkN2N/dET1YwZ9nczLPDhICJSHN85YEfPfrUp4898rHByfMaGxGhGNAHdj900P2g0eZMeweT57+1eOWNap7m432I8OTG8OF7jz35eBg2dzb8AwOcgwZ2wA6713nwDdt52XZu5vGetx3cwRJ5qcQoMUqsEKNUUYJKCBICSqyGgBilZAYCF0CCuIIucMCJzjq7/frutW/cnOzM2oNWhoOzD5594IMPjk4eQwgUUJUk3cQ7WIYTnpgmTAeeWhqEUSig07yktJaM2VAMm5nT3TJzZjLPybvO2tZTFnNm9+zW5dxmT2bJPWdPbomeaZmgQNVWTpz4wE8ce/xPHX3kx+LxUxAB++z1h+5Xv3+0la+9ef/pnF/bnH79lcW3XuXVaxxP9q5ew3zeDSrWcvQX/rO7fvFnRqdO9Bv+gRw6ASRgh/k1Tr/lOy/lrct5f9cXM5qDUTWKiAZICIi1VpXESmIlVY1YSYiIERpKHooQJQZQQKN17cFs99r+7KAbrg/WT4zUFy999crV52/feHmzPUjj3dnexEYn197/qUc+9csfWz93krGSqgEUzMgzeoIrsnk3Zp6AGYxghNNzhlNVQFrXseuYk5s7WVoTSCWByJ46a1umVFIN61JedKntiof1ZNb54Ssb3QlAq6Y+fvfxJ/7Uxgd/euPhH9HhajnX+p8o2kiWQqne+T+Y3tg6eO7VYV1X6yvY3p+/duXgq891r19t5/Od115qj6+c+jM//+B//ZdHJ4/jDhfnbW8ZAIvTAgUz2hW037D952zzDdvZtsnEU4ZAJUqoQqglKipBCBJrqWsJtcRamnWGGnCJETES0rtUFbHs4/2tV6889zuv7F6dTCd5CqycXjtzrJ7fnHCRxaSbddu3dre3Z1sHC46Gn/mrn/zxP/fxcOw4qoq2EIDsQIoMkVJOUxUKM8yYzbMhWY82geeOXWtpAXNSSKeXl9Ezc/LU9zM8ZVt0ue2s7Sxl61Jus7XmbUGb5c4suzuFlBCkWhldeGjtiZ868dHPrF64HxJCOec/PMyFv/N3/s7b/c4yBQMAuDMbs6eD2e4zL0YNGx95JJ4+Rg3NcLX7xqt5d3xw45Z0btP5/PI1G41OPPE+xBILvd3jJsCCcMIEtyU95+PftVtf4Y1Xub3D2aKE8yHUIdahqrVuwqDR4UBGazpYQTPU4UgGq7p6UppVUdXBCM0IVS0xIAQKsZje+vpLv/tPnt56Y9xNfX7Q3r6yt3VlZ0XqI2urUVSIxaxt523uui7n2axLjvsfv7By+oTESHbQQiAKEoeigAapBoACLjApZ09UVNG/CIGEqFWtodZYxarWGDVElPJfEAlBgooGiUFDFA0I4gIooBRZXg+FitBJc+bU7l2fXnlhce3ldtGtHD8X6qH8UIl13y/jyNltH+RvXs1XN31v0k3m+/PpwvP5z3wiDhvPrhpRDzAcGLweDGw8sQ5hc3LwW1/e+tEPH3v/g/r9HLIsY/EO/jJnz/re87Z5hXu7XHRwqiqiIkQJjcZaYoUgrKI2I9RDVI3GWlRFIOggJnXFZohYqZt4At1m48kb15/9N89343Ts1FHPEnYmpDeD6tj6iop2KbfzLnXJshFUiNCvXd795jdvnXr8QahCGkChGZDSjFBR9nmMikaJSnG4A1qqxhCoVgBEAwi4w7J69pRE1ETclG4STCRLiKaBIZhChQiiUT3kAnEARkcWemlUwMZbu1/715PL35y99JWzP/5fHH3w/Yj1DytP/cPRdljFOPS5djDf/p2v65XtZtD4ZB6yY2s8nMxXzx6LyfN0Lq7d5VvBQpzOhwvL66PZpJJhTOP5/OruzrPXjz12P+LbwxvBnnWIHeSv++4zvvmK797mZIrsgEADNGhUibVUQ4kDCQFRGAOrkQxWpB6hqgQCuAtFhCEyBopICACZE3f3Xvn/vrV7bX7i7MkwaPIic80HTV03lQZJXe7a1LVdarMlo0EkkNy8vf/aazd/zCyIINTCWmBgpjtEKAoaRCEVgooSSjilNFfNICqBEBEVmDNnAqql4iwQEQs0p2YJWWIUVYRgJaAI0UMy7UQTlpcpuADqGTSCZnnht17dHm9Nr33r9Kd++fSP/kK9ulH4J4en992pzL0l29Y3aQAAPm1v/9rn1+Ow+fjjWBn6YhGpg+1Jur7VjYKeXOMi+TQFyOT117rZrKpinC4G9ZCz2QF9MZ3Pr85smsJG84dt9tt2gIRIB77m0y/65vN2+xrGE6ZMUjQgVgilVKYhNlKNWI8QAtGxitKsyWBVqgE1QLR3xQIKWM6yBIaAbtHu7L34u69tHDkeYgWDJwsKrYMKUpsspTRv23mb2q701ktffja33b0uJaiohCgyII1cMLWiCgZxUEtbgixwIEERc9HsboTBnTTCRSBBhYeNDZUcPRmDwZJqMBGEIKIWgnXJQhCBCEtoIgpRkejeuS3oBqE7LE32/Zu/d+Xm5en11y/+zH85PH3usDJSMPouAO4PR5u8qesrxI3P/u7K1f3wI2d48XhcGQbC29Q1kKPNcHWgKvmlG9yd8sZ2s32ARZ5Np+G+s+H2yv5XnwEQENKBz/YW9cbg7eyni+xLeoG7X/SbL9n2dZ+0JCQErRvECnEgVYNYqYiGKHHk1UjWN3yxH5rIuCqhgdYSIlRLU4vihyRKUoQiqdu/vr99fbG2CmYzT56TAoQwm7unRZsWKS9S16Wc3a2ErDQTUolywSNCAxotQxKEGipqhDvcWDgjQinGWglUSrq1zB2NEkRUhIVDQKgFCRKyhuyeNQcPCqEqtPDNBRBSeCd6U0DAlsKgQG4NroUHhTbZ5uVbv/m/Tm++dP8v/c2N+554c4/1XQDcW7JtApSiE2/s737+meHGsbixWg1GLoCIDOr62BG/vRdcuD+T/XmeHlie6GrTbtT+mueXb6St3VqjwSkxZ81TExfKt6XDv8+h0uHgni6+6ttfSTe+6Tvb7JIzSKy1DqgqrQZSjRhqCVFURCPCADBJs9CsIFRAJVpRK2iECEAR9o1UesEamNG1e9dnCPScbdG6U9zhAOFmadEtZm037xZtSp11XW7NkzGZh9isr4/qQdUTH91IAquqiXkBBkjQGGnClAGoutAAQIuNVWhdmmTq6hJMPbirO4JTk+QMzeIZda2pBQxBFCpwwl08qocwMFXVrpxGEk53YSUBHZGMUmhPlIOdydO/8dytGw/8pf/u+OM/VsXm0KMWdtU7t95qliCEApefeW5t5rh7ZIownspqQ0JaC/PEgzaPdziZyWzO+TwcWT/40rP+xiZiXL3vrt3xOHuyEKVeYbPqovwunsz3WASQlbcwe9puPWO3XvXxtneJUKmbMFgJgwZVLWEgYVDsloRSNqtVhCEQKqGSUEMrhCha8bAEICXhyPBMN1iip0Wb6LCc8sJ7o+Ew8y7lxaxdzLp2kRZdblvrknXZ2+wd5fjZExcfvKD1ULQRiWQH61QHokNiBktQYRhAVSIFChrNAYoISDDBDTkz5ZQpUnobQo0ICFozmrvBXVdPMrf59ovoFs4uABQgqsfAKpe6IhGI4OggWYUGC24szVVSeuLVfHH5a9/4e3/r/j/735z+6M9Www3o95W2vc31lnNSEbjvXrvVjA/Wtg+6Zy/b7kxOrYUY2GZN5nsT29mPk4Xd2Iqrw9n164Ptg5wsTxez3346tLMwqjIGPjomaxsyqN7CoRHomK/6/u/5rWfy5k2f7YsbNCJEbYY6Gmm9gmoozSpiA5iUe0KVQREGElc1RCoFQlmO2qkKAiRABXAgQjPyHCIIGqqQUmoXrSCGEIXijq7Li0U3m7bzeeq63LY5JZtnLBIXGSmEc/edeuwD92q9smQiRcEBrSMqkQ3IvkCoDYKKtzBHXqAwlMC8aPc3N/e2JwfXJ/s39ubTeT2sRsfX146urB1ZWT+2vro+CpUiRAhdo1ZB6hFJcRGaqEZrPCzYLQB1qBLqiA4RoZpoIbUryMJYEUDcZDHzW6+/8H/+94vJ5rlP/oXhkZPvQpb6diogRhlPFvt7s5srw6rGpB28Uenpow5wvvCDme5OOF/Iwcyu3cTtzfnBvo+nlvNUrBuIrI3agxiOnNeNI/Wo+gM4p4XBAy4kvcrdL9nNr+Xtmz6fgS5aa1WhbqQZoR6xGiBUqAbajEijL0CDQgSkgUatoFL4GcUnA9KHbhRICXOCaA111IONM2vJ8nzWghaCKQKNbZcW88V81i0WuUu26Cxltp10OaTM9TNHnvqJx07ffw4S6AuKSVinDNzGhMZ4jJLIBSQLA5zwTO/oGcyT8fT5L732u7/17CvPXbOurqFudjCbjbsuIx87uf74Y5fe//7zDz169vhdR3VQ8+A2VRAboWg0iTW6hadOoCQAJYQUo0ZRiFC6ck/RHa4gLRsBwmjkIsNuvPIP/4fF7vjen/srKyfPv9O9rbfsSQvTgT6fT2Z7uziyXo1Gs5evjm4fyCAutneCMzaVjKe+f5CnB3k8zuMDXR224/HBbJEqm6LW0clw5oHBybXRWvUHcZxJcIHuZe58wW48n3dvebsAoDFqVUszKi/UAwkRou5ZQxSpaIA4glKUlgUJLiJViY+Wdc1iVABkIaGgiIRaIDZY27h4KjSD+WwONlXwIOqOrk3trGvn3aK1NnnbeedoE1tTrgwe/dSTH//MR3VYA4QEMNFbUiERMoQqtBYm+AKZyIRnWoKndjL7vc8+/xv/79eOHzn+1Ec+Xo+GSm3n7cHBZG9/b393f2dv/Du/88q//Xff+OAT5z76kbsf/sCFE+eOVoMKohprcQNZVY21izL5QAkBGhFcgoQgIgZQEx3BClFdCVr2niLqLl3w/f0rn/17Pju49Jm/vnHufoR3cODmrXtSQESPjihpf/Nmms9XLl8bSDW5vauDQNJXG+Zat/fEMiezNJ2285kcWxlPJ7N2kaq65oqffnB04dL6XVUYlNrn74M2X0j3DW79tt18Me1uWdeKaghRYqWDgTTD0IwwGElsqAINGgZldABxhEoLBJFm8I7e9plBX7sCD6fZaRQKS0teGcB6MDh94p7H7nr5i6+AyCErlMWTzru2zYvW2uyLhJSlNdpq/cCnnvjTf/2nj9x1DErCAEACOIF3Ahcc0FqBg4AnmMFJM1qC55eeufyl33zhzIkzd993/+qJDY0iEuA4lXI3nc3GBzvbW9du3b6xtf3Mczeeff7qk1989aMfvfuxD1w6fu6kNAEhBB0SEhDE3ABCAwLRiYSsoSNgToE7gykZpFCUyex9l5tGNWY7uPm5X81de/8v/o31S+8T/R5k4B/IequdKwohkscHB19+drG5HbL53rgBO+Z8MMn7+5zOpWt9Zzft7y/Ge9OD/dl4MplOZ+18ulhkqeoj94bHfmrtsbsvfWitWdPv7pP2OSkX0r3Ard/ON563vR3vEiSEahAGQx2saDOSZohqgGqAqmaoGSqEgFhBI0KNUBLPKBJFK5Gq8Dv6NlEPO+1LU6V2KkH6SpgH5QD5G198Jc0Wni11uW27+SzN5nnW+aLzRWaXOM+yGDZP/NyHf/Fv/OzDH7hHKiWy+4JshWVwJqg2IlWf+xZGHFEYS7AuL7p/+2tffeOFW9VgmLJN9scHe/sHO/vT/YN2OstdJ0DTVKNBM6yrqJra9NrrWy+9dHPz6t7RJm4cGYRBDQDmvS2isz8mFbDcWHTrs28rW0df0nIu/yokxUBL7fa1xXSnOX5mePS0vDNz1G/ZkwIETj384OvHN/jClZTYek7zCYeD6B6B0XDo08q2dt1yR5vN513btt1s7imL1M0pO/fB4b0PnnxwtHqygkD4vY6HLdrnufnv7MY38+6ep04kaFVr3Ug90sEIg5E0I1QDxspDVaqakMLkJsBCMYK4QwRRAPdCP5PCgJPl1AogPa+6H2iBSsBw/a6nHnji049+6Z8+bW1LMme0CW3CInmXmRwtZX505ZN/9mM//xd+4v7H7pYYIRGIEjKYAAFVPBMAogjhXV/ucgczmMVyO5lt39jb2R5PW9a3d6oqhhiCqmqIMdZVrKq6qioRrDTD08eP1yEOqmrnYP9zv/PG65fHf+YX3/eBTzy0evJoqBuYkSZWqxNEAYpA6WBOBg8kE4EgmkSzlKJ2Sjm7saR/BpNuvLv1xd9k6vzn/9rxhz4o+r2x8R9Tk3tbfVKJx4/e/fM/+fpL1ye3tiSnxXyXIvXRjaY1tiPQ0nyRaZlcLOaWLa9XFoIll1OP8p4PjS6tn3loRaJ8bx/KFt1z3Py3dv3FtL/nOUFVYq1NI9VA6kaagQzWZGUD9dBQMkoKk3i2djHemWxdvz3e3nXD0ePH77r3wvDEOkIUiFCFBI3W0l2qRkJYVnUETvSdTNFQNWdOfejPfrLtwjOf/XI+mOfENkmb0Rk6aFfp0Ufu/fN/+cd/5McfPnXuFFQBBQOkFhlRM+igwRZw6cvI1ol1xZMKM9zorkoJPp/PZ4uMEEIIGlVFRTWGUFdVXddNXccYQoiiMmgGR44cpej4YPLNl3f/r199br5Y/OhPPLZ+9lTfgQ1BqwhAVIW0wpfPDWggORRRkygIIBjLTUaj0wARmGUX8fHe9tOfB0n4iYc/IvIDdqlvHW0CQILe9emP7X/9pc1/8C/NsioX4gK28+lkMXPPBGlepjpyFJrbxKoj7/N7PzG8ePH0Q9XK0e99Z4i0aJ/jrX+drn0z74/dDBCNlTaNNkNphtoMpW6krlgNEKO4C8DU7d3eeeGLL33x379448oeuiR0OAlt1kef/qUPfvTTT1WjFQkVgpMGlg+AEkViryYD0KzPg0R1sHLsoUuf/OsrGxdP/t6/+PKtV7cWC3amuQobF4//xJ/+kfs/dN+Dj12qBg1CBVHSgQ7oSKE4USsCdCSWYS29FRosiRsKd1wUMQxWmnsfO/+1r1zbuz01yyQYBApVFtJ6VcW6qmJVVTHGKmpUER00I3PkzCtXD/7vf/QCu/zxn37/yumToiohiMdeXClGuCOaVhVzpHtA0GCsFFGENDqodJqZlyFFEp6Q2I13tp/5bYQYqsHR+574wQLuLaONPQFDj6zd+zf+3HRrb/Lrn19QDJhs7ZImQnq5YEKjO+vhSps603U5+4lw4bH1S9XdDw96Qtyb22GlX2CvcfPzdu3FbneP7ioqMWhda9NoM9DBUJoBtIaKYACq4GC+P/73/+iLv/HPvpLmKehoZWV1uDaAYzadbW3tvPH6tRvXbn/zhct/9W9+RpsVMAJUAUSdRgNUoKEMAJfhUWUZWqq0jkcvjj76y8cf+PiT483JYkZI3awNRkeb02ePDFaGiBV1SbpAsSNL0oA7GOCkt8IOnkEHyowe+sAxxFBXP/apB268uvlb/+r5+Tgxi2U4TIQi/dBEVcUl3EKsQoxRRFXjYDBIxLVr03/66y+vro6e+pQ2R49oNYAqVKgCurjBNTQ1PVMggRa8GgzjILVpi51poroHL4mECEXcVQwJ3Xhv66ufRzWQz/y1Ixcf+QHGcG+H31aiHkGztnLiQ4+3YbS4Po9YYRhQQiYyJJE2aEQraDRXs1Vf/1B89OdHj5998tPN2vFQCDbfTnhx8dd987fsynPd7jZT7secqlqbgQxGMhhK3UiMjAGxRlVR8ivPvvQ//q2//9wXXhoNj77vsQ88+sSTFy5dWl8/oqo5e0qdpbS3M3v5m6/fe/fJc/cclxD7NmLfF4VIgIQloZVL5ayioBghgzhYWTt57Nj5UyfuOX3y3pMn7j5x5OTRajhCrCVEKcFimYeQfhwVLuIGb4UL8UQhtEYo1QpfzqUU+gXroV48Ozp/rNo/mM3mi5yNZiQcksvgS7Yu565LXUrJs5kVHQhFEInZuLM3290b33/32rGzp+JwCJiILo+wBCvspyo0iKi5WUpMhrzUkSiVOEevOef9tKKnrt256ZZW77qnWjtyqH8j/3GB21tG2/JSFahUq8OjH3747Cc+PNllTqv16EI9ulSPLoTRea3PoDmN4d2s7wnHP4YLf2r05IWP/vLqkbuDypuueLGW4mLXsPmb6dpXbXvLFgsIQhW1bnQw1NGqDkfSDKWuJUTEIHV0x+/8oy/8T3/7HzTePP7UBx//8FOnzpwV1enBZHt7e2tze3t7e39/fzqZdIu2nZl17Y996kEZFBJA4XwQqpRAKKRvgS+TBekhqCWuUwSVWIYYVDVSVLTnjaBAVgNDaZE73JATcgfLIgKtpDkhoWGeaclV0etDlBnW4UZz7vzaYxdHH7rYPHyqvv/EyvowdrmbJZrQ1M3d3HORc8iWMs2cDoeYszPfmyal3XvxaL0xElBFBQI66CUHLyyScrrdzLuO5jDC0Zt0SJHAOcxVWdhQqZ3fvgo0a+cfDqPRshkj3x/luqzvX78tDmt58uxTf/cv83bafPrKjeeuTW/O64liUTFH95pShY2VYx88+fAvHamOf5dKjxSrtsP9L9iNp7utTbQJEA1RqlqagQxW0AxQN6hqxBoaoJKNf//v/j+f/ZWv3Xf+wpMf+ciJM6eydztbt3Y2d7c3t3e2d/b39yfj6WQ6XSzanExVbTZHO0df1JWStfX5gYBFEybPEWrR+lBbg31yRyCAVAnLggnkTdz6Mucn3hARnMCncKMbCp/Cs01vK02ZS8focJxDEKBNGMThucGF06fOfPjg3ts7kytbB5v716/s3Lw+u35z9q2rk9e323l2Jy2x67Jqrqqmjh5iECBKnBzkL3/txoeeeOVymCjJAAAgAElEQVTI6Q1dG9IJeBn5iaoiYiJOWnaoawgSo9Y1RkJRtNmASHEXZzZy2XNxMgvE9revf/4fjs5cOPfJX9DB6vcNlTuY+b6/SZSxOcqZ6uTP3Xfy5+4PDslAXnLhhBJEonhwfk9xUZ/45Ct28yvd9pZ0WSCIUapaq0brgdS1VAMJjYSasaYE6/K//JUvfO4fPnffxYuPvf+pZmW4uXl7b3dnZ3tne2tnf288OZhOp7P5ou2S5ewKrYM9+dBxfFsyL4AKQw84GGD0TmPzZvdOGm2hoRLUd6qdKvTiBg292owLF+4dwgCWBIaq0qrqFWssBS6bZigvHgqo9hvTiCj1xvHmyPGN83fn1J47mM5v7+9evnb79Vs3rs6/+uL+C29MDuZuhBnN25xzFSNESFdiZ7N79mvXHnri4pHVC6CZm2iompHlDgTdQzZWFd3pNXMuEiVCCFG50T24m6kbRAlzp9OJDGml3bv24j//n+tjp06+/xMhVN83Wsp6+2hb3p+h9+WhZ4GWekJFVH16jSWBq8zYffuicIbFN3jrS3brahpPRCTEqFVEVUndSF2jqiVWqhFQujj9P/zr537r175y9szd99//AJybN25ub29vbW7t7x+Mx5PJdDaft10yNzpEIDHKQxdGjz9yTEZDuJcIRt50DAJAFHCpB9SBCuiOXghJRRp6FnVQWSrDZbald1WH3mnOnDSsA0Y3WUoyyLJZ0jsqcjn62lcGScIdMDgEAqfUdVVV1WBltH5k9czREw/cdeHm9n2Pbl99ffLl53ZevDzdGaeFWZfNzYofNPr+nFdvjGfbO0fOnaKqahAEABromjVEraK6Rbo6JBuKSokX8MZg1EwtjKREOgvp3NxhJm1nty6/+s/+j8GR00fueVjK6M73u76fKZg7sHvTX5fRWB/cLWO8fqz3uwLLLN1rvvnb+drz3c4OnBJU6zo2Qx0MZDDUqtGqkVjsigJy9fVbv/q/fS5P5O7zdwOys7Nz8/rN69du3r61vb033h9PJ/NukTw7A2UY5PiKvu/iyi/+9MUHP/5kdfpUiWcg2o82qEAVEkSDikJAGaoYJECb3hJLFAhoIipQ0D3voZuoG0SgBamEBKk3oBVIcYNbH8Cx1+1YpiCO73TBIBzu/Uhzr1tY+MSiMcRRMzq+cfSuo6fv3rjnzPCek3W3aNvki87de+GR8tWzG+H9Dx9bP30MIagE0SDsb3h33mF/EHqoK+HUkkEXz8meoL3UAVhqVVMEnsc78zYfvffRarT6rlV337T+wC1+D/h/mxt12C7HX883v9FtbyPlUFWoKo2VxKixlrCc+izhLfNkf/avfu1Lm5d3j6+eOBgfbHVb473x7v74YDKbzuZt8uzIjkCsV3JuNd53evi+9524/8kzd334wdE957Wqi0hMf73pUuLoEg5IZO483dBYeTwmWIq0QYEAGJhAh2dZHKCbUgeo16Qa9ZwlJ62DJ/EOLFDr25F32hTFlL15mHKZMoJC+rK7dTjBSKhojCHEqhlUK6srxzdOXTp25vzq1796+z88u3VlK81aFh7RSuSpWiRnd4+hkhD7JBNBQx2jZHPVTFGGIDHGKuYUGBVVQB3ccxwEL0oA/V67FTacu2djymE+2f/ir18/f+nSz/zFOFiRN2Wob2t9X2iTw59/wPbkO/7rUPIMfoDps377GdvZsi6JBqkqreoQa40VQkSoCu2boViU/Pwzr37r6dfQSZqn7enmeDY9GE+ns7ZddK15JhV6stELa+HRc6P3PXLqzMOnjr/v7NrFc/Xxk7qyVgKu5XRFsW4OmnsGhRqkm9vBzXD0HJhIPUw4lzriRhA00RohEY4yYeJAb8woXkb2D90lAe/Zi6WguLzhyj8KHYRQSYWT5bsszteFLiipCSkaBhqqWDVVPaqPHh/ee8/qF79866Urs72JuPPiEX347rVqfYVVzVAVpRIISvk6VEpz7zpo8EALJiGEKtKiuwer6EQRcSU9u5u4iZd9J+iOLid2cbx747O/Mjxz8exHflL7MWi+3VLcu6opLgKwQ/sSt343334jTacu0DqyrqUZSKwQKyl3Z6gkVBSS3rb+jWeubF/fr9nsp4NF105mi9l00SbLxuyy0sj9R+vHL649+uiJc4+eOfbgueG5E/XRDR2uSRhCIorv6+X/2MuuMQtBJans9oMMGFZAAVLJf9gtmGZhMEQJ1OAIA2glIBFYrKO7IAIGZikaa4eg6m0b4eyHX3j4cIXyEV/2T3toFk1eIQl/c+YrogiVDDA4cfzUaLh+9uiZu9evvLh17cqsbdPZo6P7Hzu/cf5sqGqQZO5LyiIiQg1aVaEeiIhIcnONOVYRHvuam7tlaowaPES3QA0iJnCWnj3NE5K6+O03Xv3H/8va+XvWz99X9uvtAuBdQls/UImMdA27X7JbL6fxgbkjBqkqrWtpGomVFAaHlmKXQKKI3Lq2eflbt+bjLimzs025m7Vdyu6E8NJG/fiF0Uc+eO7epy4effDM8NRaWBnqypoM1wGllwkAfufeuEFKXGUQZVyVakCnSC4xJi37wS2kGcJdjE1fwRKB1iw6WcvEG3EIN+aF0PFmNSug6AcCDvZ/cKhgzmWf3r3/5b21KyXWQ1k4aKm7gNQYm2EIMQ6awfrakfMnHtiZ5XmqBs3aqWPNek2bC1KZHCQg7LsdohrrxkRAaEgSo5qpx5JVS3aJJlk0aAzq0T2LqxTUF46xeWqdtlC+9sK3/tn//v6/8t/G4SpE+w295UjuXbNtIkL4ASbP+uY3095+7nLp4WhVayzF2xohFhkYiEAqVGuw2fXLm7ev7Vv2xLbNlpKnlOkcKJ44vfbU40c/8OMPnH3//SsX79KVSiRDBfUK4xDWCRMhZXBSRPq4Gr38lfQJpGJwDCEgT4Fw6Gq1rqUK0NBfFRwSRnrNI1FxM59vC5PQIPE7bndahvcthDsSGMVFOVDU2lgauLZMESA9H2ip+Mc7z5zpDyPW9XpVrYx41mleCnmiLuzEc2HFAApYkVMCVDSIBglBY1SLdFOvigKrNKYpqnnIjugxuEe6ifkyn6C7izkRYpjNdn/vs6/c/+gDP/nnNOjy9nmrw1rvEtpEACYsXuPOs3lnK7UdAA0xVE2ItYYoGhEiQmQIIlrmWVg1gE/3F9PxPOVs2VJidojxSIMfvXf1Ix86c/+PP37ysfubUye5MqJkYZLCu8kt6KUdU2bacXhS2D+OoNDACt2QDNInb6UwQh2sAAqJPU5EKYdaQVqePwS65Jl4llhDDlWkl4mBU/uAHYeA6/tKh3ofdML6ToOLHDLh+pNWvuFOK6K+S5KaSlSJ4JtyyP6WvtNjdEgZfiD7pyCphhBiBe+FMqEZVWyOrGmYtw4k84AQRIOoiksvol52OacUQtTx9s1/86tH73vy5H2PvV1X+q7ZNsJ2MP6KbV3uphO6aZBQRa2rUFUSI8K3ER4B0jNtLmaDuq4H0eHmRkKN966GH3lg8KM/9+Dppx5Yu3Sx2tiQOpIiugohuBAmpEV/+cssHd6kl1v6Zz3gABGkuXAATxARrSlAjzqCpn2svySMCIQskszihDQSBz2dhF7yoGLA+kKQ37GoS/EULOluLm4Cg5VBwkPwHPIel3+4VI4WOWTqFXyVIpFIhARaondLRpdwOZ3NvsKMYuEkhL6jJQEwJxkEKogBUYMxmlgWL6Nhy0gom0nXQYSXX3rlX/zKxl/52836ke9Vtf9917uFNnZYPO1bz3d7W9bNBBKqJtS11LVUlVRLB6pC0QI20DTN2C4evG/j0sVjV1/fcchA+dT54ROX6o/87KOnPvxodfYM6lqCwJNkIG4gRLSFeZEJFcR+2qWXL7tz6x8G7ISoz62bCDPiQCAilF4Pt3xMe6NRKrZO5oUwqQkoPS2Uh0q/FC7NnguogB2ah/5X9IaNNBOa9HJuTj/UT+03XOqwpXh2KPYj2ttXsnhfF1GXQlTrB38FCuqyGV2Je+EsIwR4SCnTPcRYVY5sOScQEgVV0LpyQ3AJiaai0o8GkgA1wTS4TCbz575w+bf/+f0/+xclFJPPt1L1fbfQlq/6ztNp54YtpkJqVUmssZRSk6qWIgd5OOrZn3ETt5Nn1//if/7YpfW89cb2yQZnzo4e+Nj7Tj5yX33yJAYDlMZluROn1yFKZmiGuFBJCAXazwlLaQVCv53KQLcW7BAa1brozi+tzmEGG/oLRzpN3MjAfrrmjpYdl8T/Mvbcx+tLsnghMHoZmvfyWA+DF1XoIo/Kw6KtoK+0Fl3fw3qdAFLa7dJXcCkiYncq7EvWALzwxivISJCUCTR3EdV6OPQQPCcQnsy6TBCqqIJ6VHOYi4r2OiTLITjSyZxcQmp3bt7+D79x+tEPr196qL+L34JbfafR5oAAyWfP5dtvpIOxu2msei5u1UhsJFSFSVHsx5tBABCx0uHg/OPnf+FkHF+7EbVau+tsdfRIGK15FQQmkD4qIUWcSwcCCQRhbU4pDjdQ6Lu971kqm8iysxREwiq1djdBb9juFM8oQC67VJ7TARmiWjHUSLtinZb5FxaxB2MpbfQRmJVmpfSyvE43B2S4inYhiw7udIMVAqox27LSRWEv8Vvsm/cdVmqJG7XX5JK+q3Yn1is+WISQijoSrQTGHCAq4irKEFjGlclQBa2CphCaSqK2ZloFbU3VVSSI5D7ULGeMOWdJmtvF7I3nX/3cP37yL/1NNM1bbGe902gr+lcv2ua/z3ubucsiUQqbqBmV3hSKvk+5R8uXejV4R6FlaiWj1bVLF9Yu3FXasZQgKhDK0tWRxW4ZBFQVqQRwy7BCw0ffEQfAAHi5Yfub1h0aqQOECrkFsxzW/dk/7eU7Xz6x1TVtVpl3wOyeSjlAPfXdqsMyR3Gp5cEJRQXCKe5s95EzU4JlulnK3nXeZU+GImVTDEx5oIySdUAVNagIMgUqoa4khN49a1jOXdxZVIdUkOC+oLWHle0+19We9oQQQlWxdhDu3ldgerpLoTCIgoQYAdAzc0g5h66dHbz81RvPfensBz7xFktv77wn5Xbe+Vy6dS1NZ3SRGCRWUjVSDyQ20EBRORQbWtYklre1LePiCAEkUnzJSiyOicvqxJ2IRxBQPuMiYaBVQM/SLiwCUtQLGVJEgMlkOtpYE0/QoCEgJZDL5H4pIH4HQAJVQqJP8t7twEWpfXB4hHSf3FJa3/osdhbm7st2Vsk6HLmTLqFL1na5TZ6Szds0WxTRSZpZl8RMrBg5oAo6rMKglqYKQRFU6wpmrKLEqACCSujDgzvOgQLJ4LxMSi+bGP3IEEIIVQQ8OD0EjUGSwBmCMoj0WYSoagjlAV3SxwZOy5Zz1pSmV17d/vLnjt37yODI8bfiS99ptC3YfTlvvmD7E+YsEpbFjgoaKQINqDfEO2FXgnYhKAWCfcNH2Gd5y7iey2KCHyJ0eX7LA8+ILpEuqhQhTVA6S6WPDpZOv2rpH61ubKBuSKCb9o6139ASxEtuUGHHlTyQ7XagCpciWbk3JPC09L/s5Rf6Wlpfv4U5utZm8zydLyazNJ35vM3TRZ4srO1ovbw4vTyvg3QIoJVWTRVHg3rUhEEdB3VcGYRmIE0TAY2qfZjeT/OUO0WYgSxeniXioAEuQg0CqDMERkbXlIsQbIjBYtAQQnALHgI89HIP6hTpTy8NZrQuezvb+9bTt77+e3d/7KckVn+oyuo7iTY6/IrvPG27275YiFNjiXBVioa8KsMgHH/I969Iu1meVkwNUjV0p6dDQgIOGUw9zkrB3MoDeUr6eGjeBEmKLoGqCxiqMFzFfNxHawYlqH0x1VIOoSpPQFPPsqyMfcfoxFKrRkEwJxEVv1NSEWYubgMqPISa93Fn70CLlpaJO9ouH0zavYPF7sFsd9xNZ2xbtgt2mVSDlKeeeoGICd3ds+WsRKxjMxoMVwbNWtOsj+qV1bC2KnSFi9eiwiDQiFCqSCXQeNMOwJcMExGXojoY6oqWLScJCtUQAqMyikZI6GkJUHkTsYCgWqJH92SLW1d3n/3C0QefWD19fikr2Z+07y75vlNoIyGcYP6cb7+RD6bMSYpiVGmDqvYCfUJOboodiHifU4VKRGBvhhoOL1uphPWJXqHdOGFeeGlvQopSQRWKsloPq6vguDT9BA6HEFBSJURFTqSjD076lhPkTujNQxgTAndPGireMbQEqHRBXvLelie9b5U66LBM69B2djCbbe1OtnYX2+O0P7VFR/PW7PYk39rnnFX2aEYrcmUoBSEfKk6P6rWUD8a7VdDR6mC0PhwdPRge26i7I55G1bAJTSVVZDPQMBRv+6phyX7d+kdyaXnEsyAoSYlRSIuxFOE0BgbV6vDlmov8IKGlR+99NdQs5axd0sV89+Vnt198ZuXEadE/hG75ztk2Y36Du9/w3V22CW69SHGo7khcQQWG+TWBLRMqFRFYhls/IlB6N0640XN/FQvCmJENuRfqLoDr6wVF3SwGrSuNneVZqGuEUvRUKY9v8WWe4A7P2gsJ3mmr9z+W/VCh5NSpUqOyrxiXdQj0N/dBsZzCMrjRMrvWFzOfztrd8eTW1vj2zmJ32k15Y8+vTjH1tZuz+tXNbKFpYmxUAE05z1I77dpJ66PoDxyrTjVcE7nw/9P2nkG2Zdd52Fpr7xNuvp37dfd7/d7rlycnzAAzxAAYgCDBIkBLlhmKZEmUXJKqbP2w7HKV/UNlu+SyVFLZJcsKLJuSJUsiJJISCAEMiCTiDDERM/Nyfp3DzfeEvfda/rHPud0DSvrBGd7qmnnTXf3m3nPWWXuFL1R4pj8Md0fN6UpzmFSTLExaUaMW1iq6GqNGwAjQ+A0WTyZ1E2QLAhAhC5Gw11zVSmmtg0CsY20p0BhYCpACQCNgfPlQLnH9htcxW2uNMXlOe5sH77wyc+7RxtKJ/3RM/KlEm4AA9CG9zAf3XH+EznopPD9jKxK0IFpLWhWfwecSRLG2GDcgAmoEALHgrNhcbI7MReXtHDsrmeHcuMy43BQUEecJ4wRa6ShUcaTjiqpYiWOMQtRBYTiEXvy2iC2vwuvH8e/Fix+NORGxJVJjgh6FI1FWjiEOwWrCBTUmhyxxw0F60B9t7w83dwed9MaGubqn7yeNIU01WwvtmcbaDPplbuEzCQwozDYzeW88urG78/J6h5w+1ca1MH20jXPjUTLIWyNTn895Kpcpi4haDxAtRBqRjm4lSkQrIjIAkCIQYWZBRCIVaraOrWJDyIoD4oCcJtSEqlDMJIIC9y4lPMk6Z61k4+611w9u/LA2u6CC/5TA7Z9OtIlFd0/6111n36UpigCRh6yhR8/aHIVRETACipD4T1xizKVcgRflqLiUTSYmA5/GjHV5bsepGSXZKHWZNVnOhXkeICEqrYJAx6GqxDqKdGUQ1Gq6UQ/qdVAagoCoQBijiHOOtAICIYJSfb48B8vprQhLpjQCamQUdAggwD8yczjsD4rfYhEWl2OW8nicdnq9rb3B1v7t9dHr9+TuoJXXViori1VUSZrc398ZD0dZluV57pxzwkgYhiqKwkpcVWHcml6IarP9YXZl0Lu8t3etn52vwWMjtzjum0TQgiLScaSiSEINXiNABES8aDmWAxlFKALMDN7iVIR9e66I/GHqHCmFmkj7pg7JESkhckIofpjj1yHWsbXWGurudK+8NnfusfrCyn9ik/WBR5vv5fqQXpfuuh2OnLHKL0x0KAjMloAAcgQGCryZHqACFQAFIFxKq3nYvgWbsU3FGTA5GMtJxmlqB6N0MEq7w2SvP05SAVFKkQ5AK19vIRpSuclySnMdagqV6kfRqFGZntGVGlZiDgPUgVdOLcgdUu40cTIHhpJm6T+UN5BUQh6b6QAsTFabE4dTb4sLgr7KsQazjMfDtNsZ7ux3djuX76TfuRH01WL7xKkYw43N7a3d7e6gn2UZO2bnHDtmN8EbEaEmrYMoDiuVaj0MG0vzy+O0feNg/c6we3PMLyb8kEsUBlorXY1UNUKrkX2L5AuRYpSJWG5QmQkAFAuQv+R+O60UOUVMRFqR0qRZKVZKHAmRaCXAaJ14qRrwzbNha1hnWffqW6ON27W5RSQN/xH9qg822opFIbh16N9ynQOXGmARQkQSdpKnQI6VRQo0R955FkgDKkQSZkI50kUXwnrgjNhcsoyTxA1GrttLd/v9nc64MwLUuYpv7Zkr6+MdQwOB1DkU0YRxoNqxevhk9ZFzxxrVXPpDOx5JlsdT0+QaVKsWQjWkKYh9c18GFh9+mkNCHgKGAMVZIkXxh+WaXuQQGj5pRQXZgck5SfPBYHiws7/XffVW9odXwqB9Nq43b29t72zv9fr9LM+FnbVOKVBE1TCsVyJNmFnTTZIkN6m1YEyajvuDfVK6VmlX6+2pmaXRsPrWaK+bpym4p/RYaVC1kJoRxQo1Zpa+8e0bH3l2rVXxn6dQHfea0IUOqyc+MiOiUooJPTaJSCmtWCulWWthxayEFaNjcABI4ljAOaeUc845Yx0e7G2+83rt1IVae+4/hj/6IKOt7AmHmN5x3Q07GLFjf3ICs03G4pwgURBREEtU1d4QQE3mrMX4EcohvoehChtJU9vrum7X7g/Gm73+TmeQwF3T/PrbBzui49ZyGLR0LYoJlLN5bhy7vnMHw/T2W+Mvvn6/qUY/9tjUo6fdTJq5NEU7FwMDMkAMJKJD0BqEmd0hvqLccpUb/UkgFqdsCQc/fKHvPAqUuPMi4mCtS5Nxpz/Y6V++a751NVCzFwZGbrz7bq/bFccasK3D1ZmFk4vHhuPBxsH29sH+uNcBRGauKTXfbAaVxijL+oNhZo3jdGh3klEvjOv1epuChbu9nS88GFkHHwkpaI9oZqiqAevK//kvXnvljb3f+8ONv/nfPV+vTD4DAiAEMQBIOhA2IkBhCM4FQWzz3M9BUClSmhQrYkVMJIrQkW+JSt6Z71F9hrPWZeODd14fP/ti3J4hJPwPHagfbG5DBAS3KaObrrfPqSlQq8ySO85TazLrBDFWQRTWcwBUGlRI5K2s/Z0uZxzFoloYnIUscfud7MHmaL3b33G3bfNXX9ka11oLCx9aW16txLUszUajwWjYN4m1xoIIgYqjZqBnUas0Sz7/vdv/9nt3fuKZ6Y9ecibNppytwDShQAhocmHr34CQQlSlFnyJwaQQAFAssDdc9mMRfu8w019+LHZo7MRZcJkzSTYcDDqD2+vwO28It9d2u6Obt2+ZLIuAZiuNH//xT8Wtxr/98r+79/YWMBhhaxmY/DjaONe1QzcYAdGJ+aV2rX7lzjUL4ozJBh2bjeutqXZr+qCHv3VvtM/2U8F4rTY6sO3/9/dee+tKd5zK9nb/1uWtS5dmKQpL2BUwO3aetkWIWgWKAnFJokhZj0cCIi9rR1iu531OKErSEq8g3mLVWedya/e2BrevN06cC+Mqwn8g3D7IaEMAgZFkd6R73w2HzloRx2yFmY3JkjwduuGe6/fHFOrZ5WTulKtpQK1AhUAONEGJ4Pf77AJ0mHPeGQ3u7R/cPtg5oN+4hq93shOnXvjQmcejKLx59+art9/s9g5Go0FmslLl1CvkUBAE1Wp1bmZ+av7cMOn982/dfu1a8sufkNMMLZAqgqoBCTARIogOEEAUgpAH5wKAgHYQkRjkyareX/ACpHbksuKRTReDGHGpS8fjwXDvIPvOdUgrJ7Z3OpsPHkBuFhvtjz7//KmHzn/x939nZ29PIdVbLbEMwMAG8hTyXKy1Yh1YI5hZuLdx7yq6Tz7zfNLpXLl5M3eQp2nH7jSarWaz3R/Ab9wZ/959U/tGH2v3wyAUI7l1zrm8N+K8RUGAqggWEiNe1dw/3wI2S22SCQsVBlwK0BVTAgQsHLmwgDQIex7xBGbADpxDk+X7l9+Zf/rFKKr+ByPkgz1Jmd22jG7xwb4dJl4nxVrLJjeZ6e7id765u79jptutnYNeP7/77AvzH//0pemTEYQRSAAcSHG7ALwvGDtx7EbD0ebWwd2tjW7lf39lOK6sPvn4QydWTl67c+2Vt17pDwY2Z0TQGlGhWEAvYwHCzKmzSTrc2XsQUTw7u9Rqn35ne+/vfmHrlz/mniIlmioiqioUx6BDIu313gSk4GMDohht+yUzfrKqh6I/wMmOq7gGftHkw1GMzcdpZ2/4zrXRa7dwrLpbe/tssnMnTr708Zeub9z7N7/1m/VK5aG1c7mzBqASV0a9nhv1ZdyDZAwmFQcsNhcZWxgbFzn89ivfnT927HM//pnf+cZXR0kuTvq9Xq1Wq1Qazkk/TcdMNZAsMIhgHS9WZapdF4fipIDBT1ptBiAiDz1iIFJCGpGJFJNCpLLlQqTiv4gQlSBjKaWKLEKuwLo743ZvXDl3sIPtGS8+8qcYbSgpmAfSX7eDoU0NMxtjnbHpSB7czH/wvZ3p6ZmHHq0GQdCaCh5s4cvf2ld05xN/ptGsVkksFDL54ixrBGQB61yWj/e7e/c77+4Fn38nd1Onzq2c7Gb9b33xX+31d5lZoVYhRQpbYTRfbzeq9Uq1FlQqwyy5v7m+ubOTWqtQWc63dm53Olsz7anOKPz173YNqOeUmlEqIgqCgLRf6KiCfoeMosqnqBTMmkDVSn2xEhtbMrbL3kJAwDlOs6w72N01v//6IMX6zsGeM/bi2Qsfff752xv312/fXl1evvTsU3/2z//S8TOnhNT63fV//f/8s7tv/TDdvmf7O5Cw5CwiTiRnTBwMchmm3NnY/MLway89//yNazdvbm0NczMajWOWOIqBJctNkuahI1IUAn58rT7b1LnJFVYQQfxmwBMglGhAv4z1RYz/adn7IBZZDamMNlQey1lGUsk6ZcfOCVqhJLnzxmsXlk9HlcqfWrT5Syx9SNeld2CHibPGOWPyfNTJ3361v7uVnTi5XKnHpIitVBvVWZNnqUbBNFsAACAASURBVHnttd3Tj3ceXp4hBAEHgr2ee+et/dOngtmWJufMoNdb3736IP3CFUkrJ6anZ6/cvnH77p2MLRGFSjfCcHV29tG1M8fmjzVm5q9tPfj9b//Bwd5uJH6OzrECx35JCWMzzvbSqVqdOf7ydzvNSvBcuxnXamQdBChOSgyK7xG4ZMRgsc56T4Y7lIyGyeJAUBCFERxLbrL+YLjX/+prwx2uHgzHSWLOnTr7Yx99cX3zwY3LV85ePP8Lf+2vPPHCh8Mo9kpLy8eP/+Jf/Sv/4G/9vSudYc92wAUhYIwqpryhsQ7QDGSkqTPOOoPeV1797qee/bHm7NTrV68NkmycjGtxJdYhO5c7h8BTSj0+4z73zElBq8Kad1JAUoAkoFCHLCmYxJkchJGQlIIgZMuoHIBBRCQiRaQJDRcBhwUOyVfXeBhw4piRndh8/+pl9+IQ/rSirSgcnZh9GK7zoO+Mcc6a1HS286tv9sHVj6/OBnHgK2kgByhaYVWr/n66ea9zIXdhIZUAX/29O1/+tzeOLUWf/dzqySXEXv/m/fQrV2QQrCiqXLtybedgx7LVWtWi+MT01DMXLq2eOBE2m7c2Nr74lS+l46QVVdvHTxCIyRKbpGIya41hzpykzmbMB6MhsDww/LXv7c7P1y41KmG1VqAVuQQmHe4KPBC8VFeACece4Ud8eiaCWcLITrIsHYyvbsL3Lw8TiAYjc3Jp9cc+/LGM5c7NmydXVn7uv/yVp154Pognw3chkEa79vALH/7em9fXTTwapkliiWE+VCsVXIikHUEzgHoA8ShfH/S/+8NXP/HhZ+NG+PKbV/Z7/XE6qgdhiGAAGuQ+MiefvlhROs2N1QzMoD1Y3CPNXYEcAmbxK2ytEZFdYNMMCUEhaUVak2bSrAPtLOdoi8lRUayyH76xAPkVmbVuZ72/fi+emVHqR3UtP7CTVGQs2X3u77hkzGydc7vbyTuvHiiuNxoRKVVI9EkBVnF+Fc688SDJUq4i+OL07R/eHafu9v387/39t555Yma6Rq//wNzrNnNlNg9uHPR7DBJFUaNaefL0uccvnF85dyZjfuX1169fv/HIw48cP3NaESFhZ2/33rWrg51tM9hzWZJbkxlOckpyN2Luj8dK5O1b5rs/2FlcrsbNGlVqqDWI5uLQ/JGZUUHK8+sHwYJdKiVJ5Ih2uAOxYI0ZJ+nQfvm7OxA093b3Z6dmPvb8x6fnF779na+7/uDSjz1/8sJZHYXv1VMRTdhoNAQVg3akUYfG4nrmutYNLZ+uwWyMNS0Raje0m/u77968/tFnn8ksf//1d8bJOLd5gKhAZkNZDIxg5MQddMfvrNu4WX/iiYWoSuA1OJ1DFFSKNIsFn948dRqxcKIGTaiJFBGRQ+eYS/22o7tkYRYslWyYWcaD3etXZi89Sh5p/gFHG3op0z0Z37L9A2uMY+7sZ7cu9zgL4zhgB45zMlSQiBzbzNrMOscsMB5Z5wDAkyk4qlJ/OBQVWMe/+eX7eZ7HYTUMw73uXnfYB8RAq+Xp6WcfevT8QxdPXjy33+t940u/1xuOPvFTP/nST3/m0qOPVKpV5/jWtRtf+8IX3/mjl/ub5AZ7JhvnWdrQkAU0Ntg10s8SxOg7b3UuXGhPL7RVva5CPTk3C3QdlnC6SWKDCYHuiGwHT5gDfkaYg83NeNzt2K0t7oyGqlJ54ennTp+/eOX21Y0bV1bqlenpRlitSImYm5zI7ORgr5tnqe9B2OOmAPugryfWigsVL8UYATIoO+SNB5sba/sPnTu9ub13/c7dzOUKVYhwdwRv7Cmu8wYlvdv7r1wexDH/jdkPnz47j4TAXtweVaARUSR3rgB7FhK+3vScCBSBB4wT+sd4MhydTEj9SUos7NfXznauvyt5BuGPQkI+qLotFbMu/Q03HBhrktTdudLv77OmwFmXQ45lrvAmnNk4NZnxtovGCAMiedccvnhp8au/eyc1kKa5dS6KKqion456yQgQFcHpxcXnH35s7fFHzjz1mLX26//mN7p7nRc/95mf+Qu/uHLyBAEBoNJ09tJFRHXn9ubOXq/HWZ47yG2MUo2wFri65U5G3czc3R1/5dtba2vTp6abFEeo1aG2xeEuoRyLFnimcjoCUCgXlewBESviwFnJMpdkD+6Ph5l00vT5x5946qkPQbV24+q7gc0iCPJB1ybpj+RQFjk4GLz15tUsz5y4EtJUtJAp6NspRCQzEc5EpBER6EaS3Lm7fvL54w+fP73fPdg52LfCASor6vIB71iKt1h0z4huc7a/sX/y5BQhFhz9oi/yRqjefqUgCYn3SPXWElTqUU70X0qm62Fd4demTtixszbZetDbWJ89d/5HwuR9CfjK5MUDSO7x4MAbLXb38/2NzKbMzhpjTJabzORpnidZlmSD8ThL0jTNMmMzyyoOMdCefwVITz2zvLpWR3TOOecEEDKT90dDANGkTi0uv/DokxeefOLsRz40t3byd7/0O3ffuXzmzOlPfObTx0+uFjqg5Wv1zJqqNfdTfT8Jb42jG0l4fawfJJQ53Q7D4xW9ECtn3dtXOq++umP7YzDmsG47hK4VODP0nGfAQ9D+kaUCeuQcAIR1gIBzSw5u3ujuJ0mjWf/I00/Ora4Ox8ONG1djsMpmu1d/+NY3v97Z3hX2jHVm4N3d7m9/4Zs3btwFdOXJXYBxfXmegrqZqHtDDLVaqoer9eB4RMnOwe5B79zZtbXjy9UgKk5CAEeYOnKWOAdI0xaY0Bk2Tpg9xgQLEpkIAWg/ufVjdiBFqKgwS1VFzBV9ApRsfCg0TMRDq31f6hw7hzbdevct/mMB84HIRVuwuzJ8YEdDZx0I7T5IRn3jnLOmgECZPM+zPMtMNk7TUZKmWZqaJHMZS3uhFVYrEEQQVlGFx5aqv/LLDz35yLRWTAqYYTAepyYHwYWp6Q9devTMI4+ufuip5fPnbly+8uo3vj4dBcvLc6tnTxVw+0mwITiQ7nCYOGeFLIYJxnsuuJOqqyPcTCHUtFyhlpZhmn/rW3eT/UzSVKzPKSUoTLCce0ycZj1P8z3dQZGDPGzEFo4INpW79w46SfLsQ+dOX7wYtqeuXX0ztOMqSSQ23d389r//7X/2j//JK99/YzAcJ0n2/e+/+av/+F998xvf/fjHn75w8bQn0Xv4VLF0QkDEMagrA0ggmK6Fyw29UoVg1O3s7jWbrbXjJ+YaLa/Q5q+Gsy4djs0wrThzqkUhOnYsjtm6QtKXmT2bnzya2RXYaq18zvMvQD+Y06QU0WE2PgS9MLNz4iw7y+zY5oM7171l+dHXB3CSiuSQP+DBDo8TYWGHvd1RMszDSCOwkC39WYWdOGOtdWlmk9RmVkDr1bOLlUalQDsgKA3PPNKuuJOzs43f/PfX89ylzihSWtOFU6fPXrp48unHl9ZONSrx53/1V6NkXG83a9UgqsYeolYeeSIAV6/d2NjdTo2xBaRCIQVOVJdtnhql+EQMCwA7GT+437vy7v5zy3WoNVAxSCFyeISlNKEplAb3JQvnUHfN/9mOwObCrn8w3h/kkVLPP/XU4qlzAw7vXn27hlBVGClxNr199+4PtrI3r6xXGk0BGQ6T23fuM/MPfgAb69vO2aOCbxOOiQB2ONiz8lgjiEMYWrudJLbfY5YTKyvL87d7vV5ujUIiAWDHLLFSCy05t1QLFfj0I84zFaRQhwBEVKwCNbVodu+RYtJM1iNBysyGTIqUUoQMk0ZhAhxlJ2x9enPOWmOSnfWs363MzB19Lj+Iuo0HktxzwwObpX5nMxraNHGESAJCfo/Lk+hPcztOzDhzmcP5M3PHz8/oQJJBL8ewWWHmnBQ0WupgmAgGSZ4LoUI4s7x88cK51SceXj6/1pqZ+uoXv7D+7rtTbEPMzf7+3t2NpQsXDuMfYTzOfvfLXx+OMuMKaZeJzhAjjoTuJ3Y6gLmKBjDDsX3lBw+e/vhiIE7EAQOQmhylR0q4wt/Fiyl7VUAp40wmfGNhZ213dzTO5NSxxROnTrfmj3U3d8YH+02QKkGVOM3tXjo+UN294Q8zJ8yiSBk2zrnvfns9N3meG3ZStiJYIuCZEDIVdbOsUtH1yM3lNDuAxGbGuVardfrk6ubm1l63owACxEAkADcbwBMremUhqLVreKhk5w1y2cOaEIBJST4iIvHz3LJu8xL4xayXjkiqF3w3X7SJlxoWZ8U5ZjbDfv/BvcrM3NFIef/R5sB2ZLRukwE74yVGnUVjJc+tsC2eSBFnxbEYJ4lxScbjXDKkpz5xYen0tLD9ypdufO2bNz/52UdffOGEhtHGHr/6xrZz4IQBqV6tnDm5curS2aWzp5vT01EUf/k3/11kOASOJO/duvaD3/53H6n90uzSkue0H3T6v/Z/f/6Pvv/DLHETA/kJjYABEFWPg+0sX67SYkXdzfKr17azUa5dDhIgkl/rwBFs52SEPdHUmEh0HPZmpeSlyfN0mGWZu3D6ZGP+mK5X0zSVzNWQasSNgMfWjhIYQB+08VPjTMSyYxYjbBxb6yZCDSWdChC9GIzKDddjpbWaynS7KjkJKqzG1aVji1NTzcGwL45DQC1uNuCnl+TErJpdnKlONUlrLK+EDzWcrKaZ2QwnqhBHnrVyqFsUbYjIR09Tz8MSccJOnBPrxDJY17l5ffGxJ49WHe8r2sRXR2bH9bddkrKzAFqRjmLlxJkcxHowO1gf9Iy5g3Hu7clwcW3u4tOrtVaELt/ZHu7cGv/Tv/u9f/R/fC2I9TgxnQNrrCeM8/x8+9Ta6sr5s+35uTAK93Z27l++1hKpxLpCIOPey7/3u3/w1r1nP/nJJ5576ubdO7/5b76wfm9rPE5/5s988stf+mq/1xF/ckBx04CUEdrK3djhcqy7YbC9PxxsZtUlg7EXHaISASUoeAQbOOF+vYcGAyJ+H+STqDHOGocqOLFyojIzF8SROA4YI8RYSUUjMGYsOVtxqb8fTtg651gsgBNfTUGhy4TFu/a2JaQUgmo24iCUYSq1SBQhKRVX4lazOTszs729m6epEpgm+8JCuDYdnlhdnF1ejGv1EsVRaicWw0LxB4BzlsvG770spKPQAx8+h2e7B7ULs3OWvOiEc2Ltzo2rl4ThiHfR+1KwBwTgDIf3ZNB3eS7MgKwi3V5q0Tt7o3GqUfyyURgsg7FiDKQ5WEd5vfLcTz9z9uEV/77DgLI87405ZUqNTdPcMTCwRqpG4erCwvFTa62FY3GlqpW6cfky9PoRcV1BJeDMDm+s57vb2auXr7h/EBgBZ5yvH77xtT+8d/cus+WCA4iCRcYCxDEEw5ybFZ4LVXdk9rbSBSfiiZPA6FU+qFxPHeq/UslN8DeMQEVITswQhRGYEYgUIkdazS0sRM2GDhUp1gQBcag40Ci5c4KWmcUVlgbiERXvFeil8v+MSESkSCFJgGHNtRejgLA3ZhXkqCjQQRiEcRRNtZpKIQGGBGfbdLwF88fbs6cWanNTKo5AKXEMbD2ikkUYQAVabCqTpSczc8l2KVVIYHKkz89Bd6wOerawn6AisXsBr8nf4bi/t2e63WBq5gOINvC1uBu74S07GrvUCAtqBuLzTyxefn37/o0UwRXVqkBu2VixjpwgR/Sxn378Uz91Ka4gIgGqZz+08q//vzecYWc5z9hZr/4owDJXb5w5fmJ+9WR9uh2EWuvgB9/9Xhu4TtJSUFW4b2B3mPf0gNPMofJdF4uAyA/feNtak1tTuvYIEk20/1god1KNg3nhewPqpTkVRc1EO00K2l8hZDbR0S2ZfwJACikAm/u85knSQRDEtahdpXq7EdSrqFSgMFASCcQBRbGqWgjwsL1gmEg9v0cMesJ9JyKlVECkFUaajs3q6nKECYc7xChIOtAaEJTS7daUCpQCDBFOtdXMYlw7Xgvm61CvQBABaUERTgBMeQ/F5rlffAK/J5/5n3MxMWHvLeH2diGxnjg0STzMDMRYRprXh4usPVh/sHAk2t7PBIQFHOQ7PNx044yNE+e8/sDsytxDz67Vpltji/3EDRLXT90wl7HDDBEa0dOfefgnfvaR1mzg76wIrq0tfPjZlZjyQExp7yogoBXOz0wtrqxWp2Z0EPidyvb2VlVJQ0kjgJoicZjmbKwzxpgsM3lm8sxkSZqOTZ5Ya5xzhRzVBJ7v/6W0RaVDNd1QjQiSLINDvTIvfepKVw0uEeTFuupQKMQZyXpgxxPxByRSUVCpB81arJRG0kRYq1VVQIgQKAwCbMVYVULljr+UIfSVGfnY0lorpfwftNZaqyDUQYhzaB49Nxcv1cLZSlALjIgOK/VqjZ1DkHq1GqiACBual5qqOV9tHGsFzRpqJR4gVG9TrTVBFpT4ZG+HRZMrf5hQoMAte5KfAlFKlSDnw7ZcWCZQXnFO2IUouw/uHY2Y95XbEFjSezIac27Acbm/FtDwkZ+62HPmla+7vXt9ywxEVhAVVWZqj7949j//xScWFqsiDM4V+AHJf/6Xnrh97f76g8yRCGHuWCNUw3Cq3WrNz1WaDaWVjxNnrSaJtERaKUJXMM2Msc4BOgHHzjEXH/6IVdDkcfTltkZAgiimSJt2lYRBnKPiWguDK+Ych/Ko70GklniRkrdcxA0CkgqDqBZNNyOTZR6AXm02omqVTMdjeGZrNBW7e1lhEkOC3kBwMl3zYTdJb0SktQoCXSXz2FT+oY+dpOXIgnUKRoC62axVKumgD8BKUaTIkixWbGuqUT/Wrs62gkoEKMJWgExvH2xWVgJHLohWirUzxktfEpEr7jLQ4WCbkdgLP5T7EyxUU1DQj/CcP1eQWbq7e8KMJdbt/UQbgjgZ35dx7rKcrQWtSlgOqxg++3PPHDux8PK37+bDNEsMVeK4FT76zPEXPn46jIGLNUmxzAWkleXan/+lpz//T9+4uT4QBgSxgBWlG81Gtd3UYTDZKelAKwVhgHGkKiGGAQB4LQOxgg7EH6RcKIWUKJkyIZUNPgUEUSDNBlYCaMUUhVEhtlQIgU0E/qDgv0y+BYyFcZag1+oAPiTKE2Ko41q4PBUNet08zVik2moev3Q++f46Imql6hU6P8N3UrdnNPloRilZhfjHX1rrIAwqgV4O3Oc+s7b88Qug9t3OQWfMWdCeX1gCcWytsCOUQFFAfHYubCw2qkvTUbtBWqFnFYmCsAlIYJOjZuvibXSpGFiipjI2PFBcMbhyozHhLwpMJkAF7IhpUvUxOCum27dZFpToo/cVbcgjHmzyaGgz46wlAAm8C6ffnqgXfvyRF37y6Tzj3e1ua7peqTnm3PPVEXUBCmEBBu/J+eHnV2xv8O9/+8ZbN/tMaIQqoa43a1G1QkSFZ4nIzPTsAFATRppqMTSN90MQZr/qkckuAIHKCQICess+QESlKFBUJV5ouaV5BUZqWuJKLEqXUVb0mxOZ5SMgpHIBD4xeo/lQF6K4bxiEcbOyOF251dnPxmPnpDHVfvKjL37j+98UcURYjeDpZbWe2T/a5wQDKeTBJq7UCH7URR6QocIgiONoOoKXLgUv/LkP0VLD7e30u+PbD3KuHF89sWpNys4wO3GOmGcCd3Ixbi9PVeZauhITotd2RWTJhmLz92AzSIOKJOmJKyxsXG459xxyACqlY33y/mN8qgLITIctQoEgZ8YszZPkA4k2kLwj44M8SWxmWBhIyIE4JyZnlSMFjhk0BzW1dGqaxYEAYojibbrZk8VAaSZNLgckJ/Dk03MyHgdKXnmnP2aqaF2JoyDQBALOsnPO8ZmzZ244UCxaQSXmWQftEDqZFM8eF9GOgFIqEE7mk0ikCDVhoLBJ7uxSvLAadDeHBNSerkEQHIq1FOiicgEKVG4TCglnFFekNG9vIIeBCUEQzjRmj3Wv3dsc9g6sM9Vq7dTjj7166ky2ddUZF6hgpRF8GlRm+Z2UUgwRJ56iUDiHeTijUqHSlTiYqgQ/drb2X/zy+cr588Ibdn+8cTO5tR/OnF6batRMPvYIjDTLSMy5Kb2wEDeWp+JWQykNXoACAcABpyXQuwgQUZqqbR51xVlhK15psCAtiCAAlV5SkyuLBTahfCihMEyHsrMGEMdg8nTQr01Pv99oQwFOdky/m4wSaywCiGJ2LNZynlgEACFFBMJBCIjAVsSJ2LJiEHAWEARrQNrDeyiMdBSdO1/PR+2NrcHtPQgUBUphsRtxzhprzMWHH/mCCpzLiZzSar7pTrfhwbYzXk2vkJxERhQk8Zn06KmkKFQUk5yuy2MP19qndW+/ZzGbW25QFHhKInOpJTfhy3uJbSkRXYfTTz4yCy2HYzoIZprtE7Xo+s5wZz1NLlSiyuzy8XMfe+ndf3lzNnEsYa0WP95WpNP4lrk61glqFlVsyxA950QpFWgdB7pdpY9ean3us2eWnjmHAUm31781eueqHVVXnrt0Cdl46R0RGY+GVcjOLcYzJ6YrC20VhZPTUsrAKOQoJvnY5ZJ0vDIbTmxrysHc5Gty7E62ee9NcwU3Gj0nw9fNxo46nZnVVf/t95Xb3GjLDIZ5mrNjQgAnhQeAs2JyRmWJlIiCKiolbAuyROmSVACkzBhIe8VQ1AFV41o7npvFM8fj9YNc+UeIoRB7d8zWLK2eoIX5dO+WtQ5JT9X4oWP4bp/XjQgiKgKFLIXlrRei9V+AvlyjisapwH74Yu38E1OqkYxzUZWoOV8lHXqTzomxMhTyoxMF8sNKpewlCZEPqSXFRyNVrdaW20uz3e7tK8OHnqzVW7VW+5GPf+r+6z/Yvvnq7FhmQaam9fNzzbkl+92b+VsbaddWDQZMmrzikFKaVBzQXIM+/Nj8Sz++tvL4MlVExreG1+++8/29y9vxwx9+fma6abLE32BmHvV6ixU+vtxsrMwFjVrhLV3E29Ex7dEbaZ3psTMCIkjeu/wQ5PLeXynkGX90UHIUHFMoQjA7NmZ40JlMgt9HtKFzox07HLnMinVC6LvL4p/E4lisYRwTgahCcWKCoDlEKogFdoJEAiJMYRQ2GlOz9eX5g1aco3WS5pJbzp21TrFjdpV6be25j3S/+GCYOhau1dQjp3Aj4a+tS0diKdaywkiCivxgFFAhkUKtKFbYDuCpFXrh48sz56J8/f7Wnjn16ErQrArSkWt75Lk+cq0BpfRNAxBC9NO50iTb/z4jqaA6P712vv/GnXf7W/fqUzPN9syJi5ee/rO/8O1f27u396DZMI0pPXWy8sxa9czDdOeOufkAbm9mO4PcUcAqVNq1GrR6pv3YMycuPnVmaqWtIivjB/2r77z9u7e+8of7p5/89Jm1VWdyAHCOrXX5OHH9nfOL+tiFmeriFGpVRIAcKSv9GywHmn6tyWwdsyhFQQzGcne/xJJNUGVHxs5HRoLv1V8tG1dfYYg460ad3kRw/H1Em4x4vGeSjI1FxyAo1oFzYlm0gCr14W3OOYAKhJSI+AxTdvpYokAPHY1RBUGj3ZwfHVs4ONbONwdZOh64dMR5bo1V1iqt2dqf/5W/9D/+9m/NjvJjIxZUx+bpJ0MFWv5gy/U4FFAeUQusfP9BQEQYKAo1tmJ1cdr8xEuzZz5xRvF+54+ynUHwwmfPQhROBG/KN0STqvi9gIwSFuLplR7z5Ye7ZReBRGG9Pndubml/b3j1zf7MYhhXKpXqE5/8VHdv+61f/7XgbkeFErSpNRsvXagdeyh6LFGDvvT7mBhhDCutev1Yo7bUbM61g2qMMHC9zf71O3/0pRtf/f3N809++vHHH1NEiYBzbKzNsuxga32Gug9fmps7txS261KAbSfI7lIzmrkUNffKIyzimAUAnck4twDo92cT+/n3/B3vCS+YqItMvjexVXKO0+6wPBneT7S5AY8PTGbE+qsLpTtKoVpKlQogCFtnjDjhIEIE7UoYf+FLQKWwtwgRAqBSFFWiZnv+WHt5brzVHQ0GB8PhQX081HnVRdpZTYjHTp14/ud+4cbnf21p383MqdaMPnMq+rlZmP5h/s2bbievMoXI3j0diAgBdaAjrRqhXFqGz3x66YmfuBhPVYev3n3t1V44O7t8YZkLvZkfQQEeaUWhwIUfPnF+YiFlL8xePE6QlFIKVVA/sXiyy1euvN2/czJutpBUGFde/HM/HwXh65//J/bauoA96aB9TleWdHOOmnG0FFVZKdEB6lBFVVQaeMjJfrbR33xj43tfv/GHL3d/8qd+9uSlszqqmsQIAzu2Jk8G/XT71hOr0fnHTtZmZiiM2MutlzPkclFBKoicSdkm7Jy17HcZhXaJs2jzQgnPjwsYjjDNqGyMjlyeo9FXEup9YDtmO07YWC/t8z7ccJP76Y2vJdubNslAvCSWpkBjoCBQqANm4cKLmIFUPDXHaeq9CAuvJ997yeFwH0ooHAi4NOvt9NYfDFjHc0uLjem5MK6i9oIoGlhOnb/wh3/wbe506opa7bg1G80fj86drKzW2PbHLqeAVBCIDqQa6mYlmgpptWE+/kzlZ//ioxc++Wg0PWPu3776lbdffS157BOPHb84Q4hUhpoACR3iow+tpg4nHXL4swkwhB157JuXdSKlgiBuRZFJd+7uuGqbqnXSQRjFJy9eqi4ef/Wt65t39rnnwkyUZU1EGijIKbIUCpEFM8RB363vdV5bf/PLt3/989fevY+/9Jf+8vFza0GlYozN0jwbJ+PBeNDtH9y5ejLqfOj5M+0zx6laAW8fVJBBgEtPPifkMGSXsxk7Z5kdsPe0YmHrfUots7EMeSq5Y8teqo0tOws2Z2vBWrEMjouWVfzAhohUqHRAOgrCqo6qqlJXjfbyIw8Fcfi+cptNO5x0bWbEupLrWtyoYrvorIByIihIkqc7GyhoPU02CKheI2DJc0Ep5belXKQJhaox31w93Th1o3Nnb2/3/vryWs8mMzoKrdakVUC63Wr/1//b3/k7v/ILjY1xo0Gtad1YiBbWwk+ebXz4DkswawAAIABJREFUxfDaleydtzv317sjKxTD/NLMuUdOPvnSuekLbaxEmsNs/eaNr7/x8rc6SxfPnntiUStFf6yCnujPIBweoEcQlGWvUNpoIBcsVm+1xSCstG7VFx4l+0733rvfRhXiiXNQb0VaP/axl849/uTn/+Hf/60v/dajm92HrqSLJ/oLp2r1hTCaCVQldE4n3ayzkd6+On75re53ru1/6nOf/eWXPhZGkQWx1to8T0aj4WCYDEajrY3FqPuRD12YP39MqtqbCZZpxvlhpJ9OADuwGbApLBUK1rgAgKNISQ6iqo3pOLK9QafcTRXPVznP9kjSid66+FlKcc2w5D2DAiEUyPM8BsD3E22c9tx4yJkRZwVAtCp7HgSh0qCMnQgJARtyVlABKVABsKA13tGwzBkIzCDFspe0rk41V9bmzq11tl7p7T/Y6O1sx81ZFURKKUuEYaSJTpw+/Zf/5t/+jf/pf1DX90mnEmQL0Wyw0misVJ95vPU0LgNUWKrUiLERSqQFA2Ar4+7w2sbtP7jx/a9szq0+P3tWxS1VRtck0MRP6hgBQYF39PGxdeiL7c0Pig2ZOGZrwRkRp/xaRYgBBLVux/OPTuVv7m2++y3nxCydrjfacRjoWu0X//p//5/9hb/6L/7R//XPv/n709dGq/V0pq51AE5wZGE/M5u9bD+Fh5966m/8lZ+emp8yWWJyy7lLxum4N0r6g6w3GO3eP97eeeKJ042lGY6CYlTMxUIXCvJWgSj1qdcVrAdCKctNVAGSEy0C6biXDUcAge9PS4XnUg5IgP1wseQAMQtNwDLFAkJ5pjQAWlMgAP4k0eZhbTI6kCRhY8UBqmL6JyDCCEzihIBJAJQSACFgBq8o708nzjJQSL5W8wJHjEjosXkAoCtRe2Xu/BP9rZ3x/c27mzdvVtszQRgqBahQiXAQSiAPv/DR+t/+h//yb/2v6bU7vdH4oX7n2FhqJyWYbWJVpGZUlEMQAaaQGhi7dKu/9ebmtZf33r5qTz322cXj0SPP1ao1Epczu0OFWiREEiRBBB2By8AVrh2T3IaFhLJfRVvOcxklrtMfHRwYk0f1Ru3YdDQ3TdUqUVCZqp14JnKv72xe+47NTT6/2mg2oyhQiqJ6/Bf++n+D/+1fTwaD2zdv3bh+fWN7M0/HzUbt4dXVn1k71W7UbZbmeZqmqeQmG6XZKMkGCQ/6wbgXjx48dClcWT0X1puiKpwBSIoqE3JHdh9FzVKcqrkV57nuylszlUrCQqSMyZlRKJIQxCQCFiZVKR82S8WFKF1Vfex5m63i+hSQPGRr/+TRBgAAbJOeHSdiRZwQFSB9dA6RtA6YLYsAaRIU5eU40T8BAoLOlQqw4pWdCbzDul8AF+SzqFVfOLv42EHS+4Ot3VvXZxYXgjikgFAhMotjLaEhe/KhC3/pf/5fvvLrv375rZd3v31w+u7+yQvJzJl+/VgjaNU4TAW6zrh0P+/cGN2+2rl+N02j44+++Fy7gQtnk0oLUOzkwS2izXuTOUsCYtKC7OmvI0uJPPd6x46tYZu7cZrtdDtX7q2/e//eBkMQnrvYXnvpfGN1JWjWBZEalTPPr8VX1u9vfONgdHE8daramqlUq2EQeNyHDsKz58+fPXdOrGGXs82dNeJMkiYmTU2WszF2mPb3NwOXcn8P896p5dmVlceQSERBgmgJrGXnUFuJGJVMNAIZmMGxWJ7Yak0+KyKSd5NHoYjdQECICEMtCU3ai0l6m1QUfkclIqIOYfKTmbfneqOIOPf+ok3Yjns2y8E6KKQ/y4mnSc3IYaBJaz9oR1AsgiREygkJRkpSyA0qKJUQiVH5/YjvjvxiToeqPtc+9djx8Qhff/PB5uW3ozhUmkhB4bLNDJqMUrMrx37ur/1Xl//ouW996Ysvb959c2N/5ge9ufm41a6EgTKZJEMe9Kk7rvZxduH8pccunaH8YG45WVir6QA5S8U6JxZKthIX3ul+Q3U4upWCBceFQpt14KxYa5Ik2en2r25s3Nh5/b79nat5J0lfHKq/eLEfL4wkDhCJFOjq1KknG1Pz929c+/5g/dZwd7XSWqk2Z6JqJVBaFbL5IDZnm1uTWZOKMZxnSb+XDHqK81YA+ca7K6cWVx86ixIhh5AjZIC549RKbsUQMKNmrjFEDhSKAgfi0DEahhLnV6hjFcAh8Rs/ts5aREIUEOvSnK09siiZlK6elFBoMkwqOzokeb9nEcH2/UabdeOB5OwVGEXU4fhvIkZSLOb8UIBQKSwZwOwsWEPgiwbAsCo2B2FX6nWWvEUMq3F7efrh5yhSG7eu39x5E4gtci7Ts1JvQrUqYUhKMyGKnH/68bVHLt69cfPKG29u37u9N8z1CJQIk2bA6vTU8efWnl45bpO+mPWF07Cw1g5D5ixBZ8yglwz7pCiKaxCFoDVB4UdTIJBQJt6k4hzkFq1BaznPzCgZbh10rm9t3e6+vmG/dst2UtSiXn67d/5K8vNPlSMpkwLuYlydXjv75OrJ3VvXN2+/7g42+3vTEk012rM6CJxHGYkD55zNzWg43NuFfFCLAZJdxNH8ibWHz79EpgFWi0VwJIYldZJaNAbSBNIRWgIMcCRQzaTCHBMrEHKCFtDDJsrepxzNYkmqQHb+ifLlnfgvBEaw4tuDIqdP2nH2gPaiJqSJ9VzRhBBNJnR/0mhjx8lIDANbYSuMwL4pgxKMgaWfXAFJBgRBDQ4gS9ilyrvIsxFB0JHkKTgupqmEgOQfFwUUV6r6eFCNq3PzuzevbnYu52RTOxpWWlOV1lRYq4dRqLQmIi8fcPLCuVMXz4NjAhDrUACQjDWD0WDU2097GwHuHzunFk+2lWIxVvJUhr3hgzvbV+6iUHNhur4yrxt1rSMEdeQRFa/qBixijRgDacajbHzQ62zsdde76w/Gbz1w37+fdQZOCwUAitTlO8OwNg1BBQhJAG0imYWwruuziw9Vjq31093B3dsb4/F+jYbJyGVJlhsmBAIIAqxpdGpHVcYXHznVmHnUJoRJi7JpwljAATgQRrEiuQiAc2JAcpQcxQmPhEcMNYGmYCwQlAbgBTVWgEpEB2ldaZqDbQ/TZedkUsIiAqEQWpbcOgEliGVv4MMOD5Nf2SP685sRGUhAlVjpP3m0MY9GNnOedQ3FYBqExdfOyATIAgT+wUBAVEAMWCUA4TE6Jg3AgGJt74DECoNzEITRYY/NnjysNUX12dqZ1szy2dGdG3uW1m+8dW1u5eHazKKuNqN6LajGOgy11qQ0eftOL2LqnLOcZWkyHgy72/n4/tJyMLdSnVlpEhvOc2+hZ0b9/vrW9Vc3bq3zidXupXOd1kKjOtcO6hUMNCoo92qAgi4zbHKTJMn+YLTVH+8N9/bNlR3z7qa5s22GiQsFEVCDIJADFdSmHCkRU6RJZ3i4A9nIywNES9Pnj82KJWtg0BuOBlmei9fyiipRq92sRnPkmFN2PUXplIJZggoKABuwAtaBc+AcGMuZlZzBiVh0BlmQLQETCqNDrCBoECVSuNgBHA4EFFBYQhP9ppvFA109IEQAALUOrfWevUdOssPh8SRbonggjo+50iwKAN9HtI1Hzlr20GqeoNpBmIGVsBTuIeJtuRAEQTUkWNRR6ngALgODhMoD4xkK9CMQCCixBIaEtUiI4kVQQGtoLrQfW1oYjkb6bh5VR+v3Xu0MXHNxtTk3H1QrOqyQjpGUhyyQCFubpaP93XsC/eXj1cbpcPnUQhgrsGPJU3BGwCEBRYEQDPvutSvZ5Qd47dr44mr11Go3ahLGGGhSWokrICz52OSZNWmWp9zv2+ub45sdvLXv9ru5FtBCJeQbBWVxoYFxTKyYEdiIMDCAycU5UCF4gWkViAp1oKZqzSloFT5x/mQzImnuUoBhSKMa2jqiQusgd5BlmOdicsgNpJkkGSSZZIaNY8POMAs4JwCC5GdNILH8sc0IA4DYzBxsl4JgWC4BnLOO3aQR8GDBokXiQy07LN3HJ5KCfvTgbz/JEde7P2G0iWPJUrbWE9FUQRz35713dwEhIAFkAOUFacFBlHFYqVbFdSC1hSc2FFbEhEigOAV0KJlGo8HFhDXCkEiB140MHESuVm0/8eTxHG37WDC2DC7b23x743bfiQ7jqg4CJGJn8yQJFZ44tXj+Yqwb7fmV+bgasEk4HaFLgU2xrNZaNxvN44tTixvNlr2xmW116Pq2a/5wMFeXE3NRuxbVIq0A/TmTGNsbuwc7o/tjSjHYH3C3n4kD79VQ6hZ4dIhcfGilGGlhAeUsdj3MALmwA+NF43Wpcumn/x4qTGLYJQZGRH2FKYJYgZRzpMRIkoCxYIwYK3kOacZ5LsawzdkaZ60DYzkHNEhWKQPKAPHhSYpFBwfiMaFQkKx8aLmCXgAs4ARcmU24AOnKJAKPpLTDgJuM6Qug3PuLNgBxJueSYSuFXoaHQ5DvUqJKzVoLk6UZaFRxVIkcBKhCJ1wcu+CnPlqYgEUMYRZgGoMLASqoG6irKCGKRofALMZRYnBswzhdbraw9f+T9ia/ll3Zmd9aa+99mntu99roSQa7zCSZykZZSqXKZZWkGpSBchkGPLABTw1PPPPIf4bHBjww7IE88cAwYJetKmeprZQqLSlbMtlFMPrX3+6cs/dqPNjn3hfMkuwkk3gIBiMC7wXvW3eftdf6vt+nWtrNtw7ut1EjkxoCUPDmnIA5h9P5fDSfAZFplG5l/RokAgjicJ0BIvPl+O7twzc+fvXj+MnzDSd7ctY/VvskwE8fcfBtJrDkE4EVesVFa6uYAJgASAd0YIbxZXUIIdEY3/vmPQACbVFlO0q0ATyqWYxpQ9rZ9UvrDLyZN3Oa1DaMGwdtgphAW5ConcKasY/AYszGrDFKjBqTchRh4WTCDJExIURwySJjwciSAyOHx9+Q+GCDaSofW8I5wA5zeYmZZKEoqml2rm3Dxwcr2rZt2aFStqlYg2ThGs7yhavt2vGap+timf2pRkAOi5LIZdNl7CI6t925g0mE1RNQkep1BwKuAFFDQCyMKhcmulxylOrwDf7FmU8V0Ah8g9Qg1YYFQAAjVEVmgAR9dBuyZQ+bHuc0mVXT+QTLAsjbMMLOyUACKhqXljrjHiSCpCELcGiQEX3AAovZ/PbX73/14epHH3aLC2A1AOQEFynHvsAuOUGH7QzVO69pnhcCBMB9V98q95pQUwhXb17de+tV04gioAl2Wcbwko7ChkfXTmJh4MHMREzRElhn0IJ1PcTWkkICaM060ZjXliycJEZNUVJSiSqimtTUUDAvRVVMh4xUNFLI78gdpijfRzVnPOR5Nebmf0iaHA6yaj5dL09Nt/t6w+tFEA6Z2HnQpcNgnAzJgJwPv66aUhVNUQWAtmfXfO5v7Ov5OSYBR2BAiFtAoQMkU0ZX+GZfYvCzV4B7Xp0BFuAqU0MtsEX98ML3JVCNVoGUCASiABFQhkxwGAYrCmC95a2fdYxzxLG3rCshP/gYNA6BkCpoknfnWSdthOgcoAcgcqUpH7/12mvvnX7nQfzjP10FDXptYRvu+7h9ZGxVlqhobOIIXx3tvzG5cRjGDRYVFeSqC1vf+IPXy6qSrhsWlICfy+7dlZddz0+H5Z+KCYKgRbTerBeLiC1ZFyEhRICI2dJovH10piicRFPOfjAwAAEUBAFkG/xj241vvjVuB9YqO4VQPtKy0CirPdR40CZtLq/QdDshub6EDoIrzNXmDJ3R9ufkEMmH8CXPtq3GBNWcCZoAIuZkXz65gOUag7eyIHLoQs43xqyGcN6w0HrimwlxpZuNpN5VI6QRugL6BFaieuQKXWVYgjkUhRjNOgAEdIp+y1I3wATI5oRIDQQ1mohuDGtHnvLBj9cZyPntKfC5cjFAR+A0xqQJTVxZvf6bXzn9bPH4s/T0kbK4XSzPy82HZUCIGYEelZM3pjfvjOcTKka+rMqRr2pfVKTFJjz43j//nkkE7nOQ8lYLRr/0Ym5tXLZV/hjmHFxBS6DJgAUYMKL1ESNaQosgzBKTcVJJJlGERVlVtpJVBWBERmJwil7B5abNBhj1NtcW8kzRDLeG0Czztt1H/m8AFckKWDM1y0/a7SuT1/BIQM7IGThDD9tLg/e/RrUB5OQxzIri3GXmzAZR8OQoFFRWVAVf+6IMwgaE5INSYZOGJiW5KY2dpRFqYTBSRnSdEwYkK50lAgFMajEpizKDGKBDcAiE4IAASNExuiiMkLJInS0ppGQVQeHBoaqACV43Gjq0Voj5ZxZFU0TK+VoIgNXR3tv/3tunp+2/urhcXaEYGBKifa7dQlGQr09vf+Xw7qwe1VVVj0ZlWVVlVRVNERo0d7Y+e+X3j93xzLpnmjqzlFvqHMNwTbbctiY7C/BWuTSEcm990waKqmjJQQJjUAaOyTgJRxMBFdGkxgoybHBRAQVQ0CsVgoVBAHUD8Xwr1AHQa2AuAOoWszVs2rfuqfy7eH0G4zXVbthLOEAP6I0cOA/k0Xn0wfvCFUUoCjNA/OLVNoxpkBRDHscMHhNH6BwVwY0qnDbu+BbJynmDKhRFcHWFZQ1hIpM3wt4tmkbUpSpnIh8q6WJpFy0sDdcAa7RWrFVVUxYFMUAQIcW8QUUwIEFniAbeQARQwDE4NmeKBCLgHAAaOgMD3l4/89h02MpmUA9b7mMRDYh8eeOrr3/jD7rl8qO/+P5l15Ka4s7tZ+AQ96vmH99957CZTqaT8XRaNaNQFEVZhqIgDKahbbuHxbPf+4Pf9bA22agm3FJU8XMaYMh+ke3CxQYTk6oJZ+ruoHnKgcACqogMFoFZRaNpUuNtJ69Agsb5oZjvhUhIwbAADDAIqreUZhxUhoovkY62eljY7YG3LF0Fw62Sd/C9bi8Buw8CcogeMFebIxfQe+9DKIovf7Zl+oBAobY9RDNVvyA3rvy8KSal9yuaF+V8FqZTKKdYHEI4MHeodB9gBu51gJ4gAfRmLdjGV63Nr2RzhcsNLJNdia4MFgIrwDVAFE2iamiKg4NbIBmCUYHgE3ACZVQe3q9JICEQ2WgKgBhXWVKD6GC7WdtZj2BrUM63HwrF3a+/8c7J5mohP//bta5xWM0AIOKd6f4/uveVw/ne3t68mUzK0agaNyEECh6QNOl6tfmFvP+9//J3xnsFdGecIup1IpbtTE92fapdOxrym++lrfnOyWUIhn2WC6maKovF7XBCAGX7ZJPBNUQAhODBSoWg6A28obeBg5i/om4f3NvR2SByHWrO4DpYSDllNEse1eJQrrB1nEJO7vCQRWWUc7aJXEmh9MFn/NyXvSVQEKwFTBCcIyoC1WUxqZujeXE4o9ko7O3R3g3X3EV/y/BQdQ+4tA0ZIiyW2uXT36gcudEcm5oKgvEGxhewd0KbU1tewtUGF51eClyCLZRbsV6g19yA5d7BZXynJrAExnlCrrod9Jjh8sV2vPQ5f9oQ37T10xk42LVVANV48o3f+1bZ1NXkkx//1XJxScwMJgd18907bxzt7c/35s1kUjdN2YyKqibvDEmYz1dnD9KjO//RK7NXC+BnEhfGcTi98KWk0y22Zve3GS6GkN1lBqrX8618jSUzB0ZgDtWBCQOKoQAqkAAqggBKXlQOU1VvVgpUhhVgDVia5WrbFtR2qa65+crnVj7JMq9Zh3WCsRqzCW/zoIehamb25su6Gz7II3lygbxHX0DR+Hrkwq9JZiCiskJCh96VZTEelfPJ6HBSzCp/MC9vvU2zr2m4r3YgK6Jlb5ctrJfWt3A46v7sJ/bhM+m73mIYVaM7N+ir96kpoHR2PCsOjmG6hvEL2nsKqxd4dSUXGzhjfy66YPAmG4WoqpZnW0oCxHnfTKi2i3UEyBuX4cEBO39LjtOBaw8foJkzX6HEzDgFgGoy/epvv9fM6r2jj378l5fPP4PNWo7H82lR11UVQum8RyJTY07KadN3F5vLp/To3n/4xuvfeoXkXPqlcjQV0xxMeK06tyHkdGe4260aMYu2hyLQbYNFaEEsqBWqNLhxEYBAYUAhMoAAKeZwW2dAhkGpNCwBK4QSsAAbzFdbB5Vun5oZlzNw17ZI3gz/0yz8tTyDy9x3MMjsj+1qYoCTZ0VPHlaDK9WXVviiqYahz5evNudoNPaFUwphOioPJqOb89Gt/eL2K3j4HjZfN7jL5z0/eaqPL/XTMztdirJ77bg8flsI1hcX7mrt542dvOgfnq//zd/WrRkA/IM3x/fvdPcOZu/ch+Y2VM/c+BHMnsr0DCbqTg2vGILpWjQq5oWxTxDYnACKmuVb0PZbOEy6B1HfEE33Ehp724QaFurnTi4MNR+KBlROZq9/+zeO7t56+9uf/ezfPH30/kX/fHOyOR13o6qqOZYAXRJul/HJ4qQdc/1m/dY/eufeV29Bf6ndufQtDt8i2z00rxEi1/DUHe1gZyHAPI+wXY9ECA7NC5QMKCYChugGFXEe1wEIkoEDdGDOzBl6wwKwBCgM/TXw0IYI8q0+T8FUQTIRU5Sz1co0b62yY1MG5v1u7ms2WM0GCP9w/XI0BIQH8gWGgkKoxvWO1fMlJyAA6CajMHJWjurjvebOQf3qrXDnLdr7FuDX7Cnw08f909P+Jw8mG+ufnCE5uDNXcEooXYJl6wXTs0s3q2W5lm6dLlpDhInv/u+frN68Gb7zgt84nnz9LjYHLtzE6lNtPrNmASctlQpBbZVMzByAZysUgoKzIeDUssAHs5MFM0/FEXoH3oMjJA/otr1aVhsGwAhVkRFK22cfuaLcuz+d3bv3zm9fvPj4+Y//7BM51Xbz4nm/oKsaPLh5Xd2d8Ru0/9aNb/z7X/NBdHWm63Po18qcyfQ4uP5gm1c0bJMHfqFtDbZDc0eDQ9Mkt02W5TwOLIipAoqRQgBL+QKqudWDXQdVGHoAMvNGJYDHgZxrsN1kyLbaQPMMQ8xYNLFFNlbgTMDTvO4c/Ka58mRru8h82aHl/fzxhg7JowvoCyx8Pb1Oj/zS010czSd+f+ym+6N7N+rXXg13v0XTb8piKh+eyKcn8ukZXLXF0wutSjXxTWOOCM03dbW/5/cPXSgCi8XYb9KocelsHcaN3Dnih+fFJ8/XP39gX7mLP3qz/r1v+/tvu/EBlftafQrVcyiugNiol5QMDINCaVAAehgQPTldJYdWO28E6BwGT8FD8DhswT1sVfP5O71deiioGMtw7qiYGhZ1eWN07+Do9rfeatfp8vHV+rQXc+bITUYHb9w9uH2MwNJf8tW5dUvgaML5kEDd8e5xt+rZyfyzEWqHDkBEcpmiReAKWS93d0BwBoUCKgRFNhNDNkuSTbPZ3E8IhihmFgyDkQfyu5XlNc0ojzRwO4VUBVTTJDKMiweTVY6HFdnW2dYHaENM65aRY8OMYnu8EZBD59B78p4K38zHsLUXfKlqMwDA5uh2uHe7PDwsXn3d3fkOlt9Mn5r84OfyyXNe97RRvVpbKPnmHujYTee4Wrlpg2VJoaSqBkEHqDenldrm2bPwnXf04VP/8DSuVuly4SuvP/hp9/HzdN5Vv/WV6jtv4HRCezMI75t/ZGjkErQsyuAMvUHIXnhARHAIgajwFAoMJQQPRcCixKIEX6ArzBXoKqASwMM2s9qAERiNQRJw/lEsJUvJTBAAHLhq0kzd+OYxKAK6vFVUTnrxGaRO48p4A5pMc0Db0OnrAEje2qGvp1ZqL6+wcgepYgaKHj0O+yHbqsi8Gah5hYAZUodpy+fNokCXTQCApDlSA3Zukeux3nANt0HbASaqsr157p6dqmaqSbJ9Iauk1XZjuF+GWG65ZYMVAZ1HFyiUVBSjySivjX+NOylguX/Pv/l2cfMuHf8Dw6/EDxbpLz/EX5zYJsK6h1BwjG5UjX7/O/H9B8ZSkLl7xxxcLB06KkIFZVjZpmpGejS9wHR4MJcHT/pAsOrbGGNqS06b/+378W8+iA++2/zT74Rbb+G0IleB8xRALkF7Ndwu5RyiJwyIhcfSY11jPcK6xnIERWN+Am6G2AA0iLXhyLCCvF8zQxSwBNiDdWAdWoe6NlkiryG1wB0wA6uyIKL2LUgyFY49cALJrqRsxuThvQ9Zurdtk2ArQbdBDfgSSeQl0YiZioAvqB6lxRXZsBIfvrNo4BR0C7cZZN5DnSGhEUHeUgMSkcQet1o0MFNTFrat6v16rrZ7TNo2QShvNYZA4gHmJAKi+cMkcwh2WIGszyFnREYOnAMXwJUWKj+qy6rcPm1/jT2pn9/D8A/d7L7xK/1Hl/bZGT880fOFjWqYj8p63FSjOClWH3w8Ozzq1lfueMLjsixCMW0kBJyMdb/xV8RtrI/2C+fcFOP55eT3vrf8X/5VdTAbBTz7qx8mOS82K2s7fng6+89+3735Go0r5wsNCoXIQswUPQIqgZEnCARVwPHITWYwOoJibm4GeKh4ADBGCAAeIQyRLrp1fyKAM0U1FEQmSEAtuCsM51i9AF5CbCH2lsCSqDBKNGHk3lJS4S1ja9hbwHBr+9zyHXe3zkFduCNR2XYdtP2zwtauMa8nt3KLHSofyTDH9dLWxEsElAXPw6THgCTHVQ037FxiSM7lc2vr+X1JPJS/tL10f8ndGuebacYsAA9GGpTr6w3mGRuSB+eNHPoAvgAfwBfVZETB7/5Xv3i1bRsNVx9R9Y8t+uUPPuz/4mfVwyu72JCSbSyMGzf2OnN+f4KLDbw1cq/O/LiBaXDBybyRw3FviG0fWjVxI6L0+LyzOP7ON55/8FFxMFVn6yePHQCnHteL9NHH9PBErnj/v/pncP8OVR6PmUhCAOn6TCajArFAakpsJtgcYnXb3D3AmwCNWWAtfDRrWS826ekjeLHoVxticYjdszPspYJCj2flbIbv3sNXxzaZIB0ZJrSVhQtwL6g4oXilm5WkoKJhNI39s604TGGga+Tl95a9ta2RbcXt8Gz5X7qNcKYF+KqtAAAgAElEQVSdQZWyUjXF3clzXQxb8moW++MWRr/DZiIYmAzTlYGMvn2CZ5U4kdoASLHtrXLQQhJZxsNmtJ4McvHhZqCoimrACqwDjHggCQx3ggKpAArgCnAl+grDCIu6mY2Rrq/DX17fpuQhThZ//Nf9Dz/kXzxNT87DN97E40P5yVN/+6BzVk6ndGNue00qyR2MtetDM0ZAGpfw6qEyenPF/hg/NNXo96fFtPYny5stbmbTdHJWJO2rEpKsyfDO3J218kd/zkmO/+v/2F696aqv04EiIq4voWdwHpsCq4DNHpa3wd8DvIM6Awlwur7461+UJ1FvTRdPn9Gz8+JkZdM6ddFKz+s1PnghtU/TyfpHPzrcO4APH+LHz9PX7hXfeqV867i4e4TuUP098M/Bf0r+aSiQF+e8WRKBeadgJlkytAu0y13Zy9PkzKex6wMN1UJFh6/D6afaty8fLlvzpprKDmkPg9dr59PMwYewNaPsliJDHQNBLl0zs92m5LrSrw/M/HeznA9JCIaiwEklyTB12xJqclPHCmLbXW8m+pAnCkiBqCAqiAL5ERZjqsfzvanL5/CvV20AYKs/+ZH8+c/aDx4drG2DzlYxuXV159Adz5rf/UZ3dekApA7u1WNdbVwVXBWM0OqS9mdw1dOLDayi1hVHteCk7yCQGpKAA6owKJKMqlES+PCRBLfkC/evf3Dp/cF/85/ojXuuEjxkN/pUux6LAusZhpvoXzW8YzqB6PnRub5/7h4u6raF1twpT2vqsaAOtTI3G1XPFu3Vmm/M/LqblnUYjTDKk//r+wcHh/T9x/AXP+knzeabd8b/9Lf86zc0vIJuTqMDcx96X6l/jpqkz5JpMc2scdvNsUwpm8a3isDrM20gwXBMzz9y3OVG/xryADB06wNQVDJJKY/4zcwZUl7s5rXv7jbwOXrfNrwlK0JyrQ+U1628dfeQHsAGw6XckkmSFJWTiihvJ72qxtmN+vJQlxy6QK4gCoSBXCAXKJSuGPmymu/PXq6Y/3/qzOfw/ds3kprZx08u/tv/uVh0zf176dlp5xxO56wm4szDi48+mr3+qhQ+lKENWhSBnHOTEaCly3X/4KQsa6xHOB/JwURjIkd9SuM3Xr948qy47JN0RsqJRRTUmIW7frw369q1f9HxidbffRPKqfraSnT1lKp7ULxj9LbpbVjXmx9+dvkvf2QfX+h6Q2z88XO6ux8Sy8cv+GLtPI1cVXSKoKN6EmaTZtLg04sS0J6dNgL1G7e7drmK5/LkM/fh0/4Xz+TJmd+b2HSutA9uRJ6AAICdXg/PBnWSDmqPawPq1vW4U7flJy/mzm974u2Q+Llnhzx6kDwGU4sKvXDbWxclsiZm5i1aeJAE006IvkX4wI7LsevJBlfVdrKiWwiYgopqEk3Sd6lrY748sBgn5aQpKbNlYBpbfiw7IEeucmHkQuPCyJWNL8ehnoTpfjE7Gh3vv/nOrRwFk/8KX5hxZAhGoMv1yf/0v/Y/f8Bd5B//ApbLNoD1EZMUr+wXRZi/+5YV5JvaJpVLSiGYBzeq8uzVKeGlGEs7JdpvuEv9xVVtfvPTT705nZZcEav4onR1rX2WpAOhTzFC7Oik1VCFd15BP0PcI7xj+JrxLbuk+PFp/8kLfnhefLpwz1bWiXhyswZBEkhqAnztrt+fITmqSlcFVECkeFj1m3WPql45wCq1/pNT6BmF2bj76IH9zYfxzz/GYoxHezQ6NJpS8BQCkABnd2MClayKxev9599x6NgOXQPbvMGXf9EMTAblBbP0iTcpLrq4WverTVy3vGn71aZdb9bLrl9HTkI5QnSYeOFwR8RduV+fGkOuY9asX9vZKbedwsxJOEnfRWVVs8TMiTkZJ4vJYrI0JAIgZGuSDxQqKsauGLuqcWUT6kkxnRZ7e37v+Pj127fuTLd76S91JyUAS3L+R38anpylsytJ4qcT9r7Yn0E5CvdulYfzMB07AlYTUX1xVdQ1FOKmzfApPCqpGzvplJKRoZ+P4nykrpKRM7OyqdOnjypPfLGSyys/mfaJpfArJ95b7K78yQP+wz8qv3pUffctCDcMDFY9f3Ki7z+Vy5WLya2EvfWHlXe+eu91t1zq6ZIdjm4ccU1OPU0irqP1LY4VKl9cnMSCXCuhLKUswlu3+GxtqZXPlpFYPHHq3Ps/hf9O7Gefzf7Tf0RvHoirXd0AEeIZ2VPiPrfTYJovmLsD5XPvVftctcHQ8w/wu2yPybQH48Rt36/7dhEvX/TdRkTMAY9K8ISrlVxcckzQzKuje6Pju9PR3ihURIS72kXMa+PddG9LDt3pbgcljKmq5IwtBRo1tuoRxVSFTQSEJZ9qIsbD2oq2CFiHFJAK8AW4gL6gUGBZUVm6enRw3CCKvZQA8yV8CRYfPtv84f+BvaxTF4w84viVV+Huzfj03KK2MbbKI0GKUhDRqKZZA/u1Kwf+PpY+3N2DWR82vZy36cVZ9+S8aEniioRKdFHUL9baWz2auiSpT+VoVO2NsWlsvdk8eNy25+PH/vx//Bc3bs7h9h4/OoX3H3fvPw2JirLSVYT9pnz3bjhZx6sNX55DCO7OnisNJ3UwIEUAB3UhHVmvVJWcNn4xQlxHZrlYpbMTFyDM5+vLC3LBRARgs1xDsUjf/9N0upz/579ffvu2hdewMBgT8oZ4mTMYQbPPLHdwpIio6aVXD16+CvzSL2/LT4VTXLXdsr08bR8/3Hz0UXd2KW3LhdMbB3VTubPTtXcFKJ3+9eP5Qf3N7xy/+Y3D2U3vipCZHi9DDXelpioGZuTQsrMYMSOrsw2CRWLfrxeWRNRSFBUzGWIglWGnOBow7UPwVkBXgCvAFUh5W1VCWfu6ns3LXyqeL15tkRf/8s/oYtGdLzUmmU/7/VHZBF/64quvxf0RTkubNTqry/0Zzka+KtE78jQ0yIrOedoba+ETmcTk6/3J3sRON5oibSK0vfRrf3Ofnl0Ji2/Gutw0XmCjcXGulfdF1XerTXtR/fVPl3/4/fF7r6efPYAuUdNQ8NYxVTWXhR81/kbp7+zFCiUZBlfc2ZM22uUGnccqGIMLEznZWM/FdOpXUS6vfImxYupFu2Wf2jBvYruxtu9Xm6R28cknXc/t+bpf8o3/4j+ofvMYqlexEpuskTcEZJnlpClT7w2cQHDaX798+Lki2E5FPldtoCpd315tTp8uH37cXVzSndu3X38trFbdZ0/OP/zsqi7x1bv7dVG0603Z+qfPNss/eWKFe3dS+7rcceiGtm0r99C8eAJyRWMq1m9AFLOpR/K2iplZRFOSFFnYlFWyEJ1BhjkIZPEpUk4UDORK8gW6gC6gDxQCFQUWTWjqauTt8+TKL1xt8elJ/MXHPZkcTsav3fJ3jorX7hZvvl7evhWmU6oK8MP6UXDQV+xAwNvrGQKCa2o/GsGdQZGfnQ7YJ9n0RYp4sZIHL+BiqW1fbVq9XPWfPk6Pn8nTU9v0RGSifHEZ//UPux9+VBzstfsjA0BX4mQS9ubhcGLrXusAr0yraaWriJHVDBDdwRjMQMzYQIRKSmcbPV24syV0Sp1Q6TsfaKEFq2z61PfSRzNVZr1a9aIpPdWffwD//exQf2/0W3Oo7tK4BVQIc8Mz5cegKzAGMzRxyqCy69u28sOX2ynYkoe3XA3mftWuz9ZPPuk26/qV124WVejarrLixo3peFyNApVF0badAXrvnZMXJ90P/+3J8d3ZeG8EfkhoHD7lTn1ukFhZoAlmBAID9dVyFjyzJJZse2YTNmGVlFECQ7WZIgJqFtUTETmkQC6g81t6kCfnMQQsxs2s8J7s82Eev0q1Xb/7IKUX/+KPVz/9ZHN25Q9mfd9Wz8/mvuo32n78zB/tg4EjKmbjsDdz8zFORlhkt/Tg/djG92xH6wIQBfuobUqbTroeHNiyNRbzhYwrLJ0bV1T6cHFVPPduOvaT2tpeN5HG46KoqapUzbXJj8c0m9jhHG8f2sEIyZFZapOVhatLKENGUQ/XP8rWFoXKU1bPlg69V8fUio9MIfD+xNrWHj+BHi04qHwfU1oyyypdPu5/COv68G7z3eYbE3KvUR0BnnLfQ5yYJkhKICwMwjmCEq/XlZ9TdW5f5IEYb2rc9f2yPXsRV+vy6NaN8awRER8cJWzqYlwVxtL3rEmEBYlCcC7yg4dXH398ee/NfV/64Yaww/sNvZpBzs9InbJk1WT+UXIuGEN+a1gOiM+NGhvzsLDaCk2yXsshFeAKoADkyTlyjoLHooJiLOXo6HiC8Ev451+h2nbROwoQHz5e/dGfr372Sd/3drXcvP9hE2p8951yNF2+uPCv3fK+nBzfiKHAupreuQUHk3B3H4/GsFer25J11OBqAy+u+KrFXlDAxFIf28tNcTSBKPbhcxPQ5aY/e+FLF43t6jKcLcfFmBtImtj7RM4O9vzd2xIcEBXTsb9xaEdzmzW4N4LSIznddFU9UQNVIaRhn5hn7UkgJhAVUi0Jg9O64CqYMZh3ER1S5JRM0IyANBCFEDc9OIwcu4tncbFZ/tVtfeX+vfmt6f09dPeoWGLtoKu1DSCKaJgEFLcT+50p4eV7w+6dPITvmkqK/XoZz06hGDVVHVJiERYZIt44yqDXYOUkogaI3uMq6aPn7WqVRtMqqyZzs1ZPJsuz86wPKIOnApXVWDUJsyhn8q6pZKU9qUAOZOdknDQliwwssNWN5ymyA/KAATAoBocOyVEIVFU0GmN94MeT/cPRdpL9xc62AVbkxC5/+OP08HFKvarGy0Uzqpu9A2NRkYCervpqPqKWrdPqnVf6LhYPz3kt8PzKvXkMRyMoPYLpchP/9lP79ISaWrx3yWLfuxA8Y7UxQI/zA2C1oq4Qse9T36ZijAelq7w9eSpnF44CHYzp1deoHmEgN6rh9VtyY0Z16ffHMK3REyJgqCEM2krcxueoKhhYZFu04AgSU96sm3rv2Qw7tk3fF6Sq1nU5sw2jRk15X01NtUHQ5RKff5h+8GO6Oarn++X+DQwb1yx5swbnDeLOyjA0Tzr4DT+fa5FXXAgw3GRFRFjatS6vdO/Yxb4nJFXmyBrZEmvilJijiPCg5c53RITnz9vlUm+RH4hTyqCWug5k52kxMZMknESScGIVVYHhg03zJVQG960KMFtKkPIv7pwTiEAOaPBZAXp0nkJJVYOjCY7m+/ujIvwdYaS/at+GBrJZ9z/6WXt6PnrzztWHnxXJSvRlhNXzs+ltPzne0wh2sbq8XNb3744c8skVaJmigIydc1ASHI5NlU8X6ekFtkLOnDNX1/VX7slVG150JuIKh3sTaCN4IlC7WoAoBQNpcdl6V+nNO6Mbt1fnV/Mbd4WZjvfpzsxVFRQVjkqsS6s8BgdmGPww2bQhczxPmdARIuI6cd9TEjral4slf7bUxIaIs8badSykdxYO5lAVsGkpRvLOI0aCYIDrvmfF/qm++OTZX746fmN697u18zepOnHjC11eoCl0G6CMS8Nc4Vu45cvVZtm1lnWweaafki6XulhuRuMaVL3zoCKJRVRy4LxIyoOwPJrYUibXG2FxzhcIapozD7Bfb7YP06xpy4t2zcQgFZMkGkWSMmeJm0i2ew/meVQ1FhB9SfcJhOAIAmIYejVfUFFTNYXRDKv66LhxDn7pYPsC1WZom+fP+o8epE0XP36UT9aq68rpRB8/02jr1xwd7JfJVehCb/KnH9K43hRc39kv37mrP3quN9pwODZRXbR8trROrK6KZgR7Y/AlaVSk0gcMDgByLjgUAerKmZEjA1OR4rUjI0d7+0Uzhv0JjaswnVrlqXSACM6BI3Ru63DevlV60DZCAYian+QQRc/Wfd/Cal2UV2QYDvb6xaVyj8uoKrTsx4dzVeHLlYkpoNWFX1LPkZO4xFE1defNww9Xo/tPf/LK6H44vDNFf9uNT2B2mWIPakTeSIXzTXNrobLdnmHbxRkgboNxDVRgvda+13bTKWtwDkEzrUyYU+SYJMbUJ44pJRbO5mIFB5gji9AQsjVN7VqvNijlNCuKQcyyRjdxihxZVIQ5ZvrqMGBjVQZVFDUW2z0YHTi2QBYQC3QF+oJ86YoRVROs94pROd8rt+q6L1VtYLD8+OP2+Qmydt3GiJr9/dT1m6fPQzPyCcJV6/pzsgLHk+q3btnTywIAmhIIrv7oR5x0+rU9NBOWeLGUxaJ653U/n9lFp8+u8NkKoznTVAfnSuc9eJeDHaEq0YYLt5SFHc7D8U1c9U1dkXdWFlYF9E49URWgChg8OMoAn/zdVDaIBkgQh12MBpS2574vLKCv3KqLidFDdeNw9fCxLhZu1dXBbR696PoN952YUhHCqI5hFUViGqKczcP66rE8/uj5j782+VozPSiq8hDKfRhPcb2Bvjdh2PpfXwq42FpHcWijt6i6gWWBiMyWkvRdRDV1zgGgamKJibskfYxRtGPpk7CYGLCBGo6boqgCQo7bwZ05+Zq3v8uJz/+wcGSJIl0qnF/1LEmZdbiQsqakiYEFRYZPIwqsyKYF4KSqjCpypQ+lK2tXT7CeYDWd7jejEeHnZx+/arXtRpH6/tN+GdeHUz65CGLBsJjM0Dk3bVgBE1u/xpt1/e037WIZqhDPF6qsj87c7ePicplOr0q4ITH1F0sF0GULrdGa3cEcRo31Sn2CKmjsndtmdjgPjaNmBBcrEPRlI/XYDF0UCx7LAKHM7TCWFUwbqx2E3IsremeAoIDONIgblf3jC0cUE/uyBEItyB6f86bDsxV2rSPCk/OwXnEf+9LptAhr1Aq5RT5tY9/Gj65iSmJsBCmKlEHWndFSl0/tybOTT2/feNuVNxqgI2qe0uhSlh5CKV1rMvift4kFtkttg11Q4O4YJiBHitqn1HbRxAIiKqgqi/Scn6HCBrkOomDHyqJKvt4fF6OgkHWQIimJyufC3gBUcbC6sGhi7aOwpk2/6daqmvJoLZcaW1KMar2omEsWnrfy2SaGEgtqZbHh0/O7t++/Oz+iUPl66kYzrKdUhBs3x4V3tMXafJmzjfuue/C4ffg4JUZyIBbPF246jdoyUPnKbT3v6lBwEn7wqAwjXccCKV2s3D/73vmDR9Vm1WwigFliWW100/HPPqvu3IbZVJvKJ8HFRoKDhGSkSVAMnDM/QJatLHCMRo6mDUXlWe2nlXkCAUNH3huRMgOT9Qoy9D9gBm1ih0Egxkjrrl+s/LhJJbgSR0R2esXCxmIqjMz9em2dj+xLH59ctqvlRnpQKYiqN+4tzs67xyfoEJvClh2nZFaIRW1P6uXZ5ll3dVruHQXvDijs0+hcywtdLHYTNn3pXNnqgBCJBhjNIMwABHDB+Yqi8KbrJbEDBAVVzG4BFhO1qBAZomAvENlUjUkOj+vJrDQ0TSKcbMssgi1OzswksUTWpNKxdJy6lKKmxCICipJEoghr/lOdQKvWAl30+HTdj2flb989Xi5Xi16uehVNT06ez5qDr+7fKJuZa2bUTJpJdbRfevfvFNoXqrZ0tYhXi6jS9Z1D532ZQH3bVc24no4N4eDWEXsP47q8XON+cHcPebnSnuPffDBeRa4CLTswgDbaozN/2RWv34U3blNdY5v6FH2JUATIQOgoeQUHSiAGiFhV4At0BM5JAHc8lgIpBOgYkwEiiCIbiEHL0LN4wBCs71zwFG3z4GmJrj27NFXsezq6ZRf95uHTYtMWF+u4WotEvzfyl+vmrVu22ixjS9C41DfmFGy1vNr84qGlBKqAJCyUR0LifBlcYWlxsvjF6eWzSfsajcczoCOqTqgstKoUnNuciwFsJdgIQ+YAUg6RwGzKGvzLCC648aQgb5uuZ3IOCQ1ViQ2TKouJZoYcdKyRTcUAcTwr33jjcDIpVURElLMpD643V9lM45yh5ksu98zRYpeU1QxFlJOknhNbYsunZst4usG10be+fuAsLq5WnWYePSKQsC5Wa/JlGE+pmWBV7x81ZfnvxjN/0Wo7u2iXSy5DR1yuOZM2Bd06aHG5oHU8m3T1dFpcbjyjT6bHszZoACdX68pV3dVGEoOIJYnMrnTF2aJ4/zGOGzAs6grmjQFmotPwlCECt8VkBIKMAPOEo2BNQQWpGBXejAe8E6KKkSisEgoDdhCjBkyXi6pXQPYAUJeuLnBUahMjWoepqEgv+mI2UgBlXnNX/u67/D/875J6tgS39jj2fH7qbu7puocX59RL6NXUKudboz4mvjwl+tjdfO/q6d3VsmxGNeIh+gaLEj0Ct5q9dVs7gW1jwU0ViVABIMsYM70AisLNDuvxrLk4XTMIgZqhAYkRqyUDVmOBNkniQWtGzr33zVfeeHvPLIkN1KudoFhVdw4HZZHEqYuSOPYp9kmSKIOIpl44aorKApGtS9AxnLfQmnvnreP9qXv6om2TJrYYjcUh1Z7mAuPe1Tbdh+ksNOXRUVGGv+N+8MWqTZfLuF5y6Yvp3NpzEyMyFOW+b0ejUdsH8NAKo6fRCO4f2YsrfH4WRd3hHlQAfbJnF7CJuuzSs/OR+KBF6BldAiIbEwJCEkQCQMPtm8d7RNoqU8EAoHDQBKxKACMWEMlEdkhqix59MlFYdQTGpCBsTYneWWKOEi8WNK5hvw7exU+fpp9+EpJCEueJbu7HdtmB+A+ex6qGurb1xkj14YvYtX2K8OwiBqeFw0SgLCosnJTMB0Sx9qI/edE9j6vLcv/AFWECVKKnnHoBhJopgY6AvPXrjNEZfC94vdAyQ+ec83J8c/zGVw5+eJ44cQaBMACLRtWkmtTEIEl+LBMRHBxN3v3m7YPD0bCHSimLOkTE1LKCydSAVSNzl7hLEgURgvcSVZhT1Nhx6kUVkkBiiAIrxkWCWzcngez56XKxSn1vfTRWj1AQjl24gcWx1HM3O/STyfygns8KR+7vq6JftdpkvU7rTbpc9JtNMCf7s9RxgVozuk0ycbzpgDhUVTIRSXZ+bprAeTm9jN95VS6vvAAvu/70anW5qY6Oy70pHs+xKiyZeQeGpHRtTsoRWIQQAmZoMyuYQeHR0NYRxUyMkhgrIAArrDsLaPMKA1jbk6Jt1rLpYhA6XcC8qQ9n4JzVpQvOVQU1pVtFndXS9f4rd+X//POk3DoUS+Hmvpyd9BVhUfAlp0gxxrhqA4VsCMTs3SVAh0AAvJb1SXe62pxN4z0IoQAqgIYwzEG2CGCxN+1wm2E6WO+GJcIAZxAWcn62P37v27S40g9+chLbZAasypZVlTpgjNQQkBzND+rf/Sdvv/sbNxAFDPLpJSx56AFZBcxmotqzdIkjcxIVMbHUJ9W8ElUEFLUklsREQRQvOmB0CHZx1bZdv26lj8aMqh6wQBqH6jCMD91k7saTMG5u3ByP6v+vivqVq63rpeukT8aGnqY3DvnsCi5bIoBNb75SAkGzYI6jf3pCUdL5pfv6m/BkSUrWiSTj9SY+OS8X4qbiyINzVnoDJQHoxXpDIiAwNAw0DBMDgafBp6SAosYZ9DNI9UEFEEEFU4SGsCxwE9NyAa310tGopIO91aOnk+kRxqSbXj04Iu43Etu07GhWlIkv/+Tf6o2JfvCp1SE8Pd+8eN6mlldd6jrrkxEgKIo4X6qIpEzQJfCoZClG59quPVlfXq4vbnY9jRpPrkZfIiEiqYGZoGYulX5OWTnAqF4akKBDQBfw1iuz7/2+K2r//o9PL887NuW8PjczRFVQcPuH9dvv3nzvG7d+5x/eHzWowpnGxczKsouAy8QtjSx9ksiSWFmYhVmZJfYsSThpflrwNgA3KS0FksLlZesdRNE+mgipOoPCaIT+EIs9P5r58YTq0Xha7c0r790vr6u+TLX1SWPafZbu5NyRSw769WI62ZvsNatVWznU2PnI9uyc2GBUurvHccH8//xcisIniFdtfHJeo9Oup2UHlysEQwqgYr0Cg3mPDgDYvGWvJ+j2JDAD1h0q38AACUTRBMwgMnDEnnW14j4CEir6g2nfdu5iVRU1Xy2xj1qX4XBiHl3lXelsHOKzUyJKJNqMgZAI0uPnslkZJwqORuPu/ErbPszHAWV1uhIRcxaKQje9mbGoqYOAFq077ReXst7AbB6I5uDGSARopmqcjIe7wMvbhGyPGsggLoPlBiA8ebz9yqQZV7dfOXjyqP3g/ScPH1y2Agxw59X5W199df/W+MbN8uvfuHl40KgwKJNBlnIYy0B9NTBRY5XE0idNWeghzMKRUxJOkhUfKho7FjHZBgeJGhsaYGJLnIHSpOoUglBptOer22F0VE7m1XTmqnJvXjTV33MX/RWr7Vrvl3nmZoRIpnq+MILJjaPFuuv3mzUxV9SuVn46bt67D4teHp6KJ//JczRIm46+ckfKUpdde3kxCQabDbQdbCKEAmoHank3b33EQEAKoFh6cC4P3lEBRUDza2fZ0ocO8vUMVZQTaMIu4pLNhJx3SbCi7nxhy6K8WEsZ3Gzk7h+H4z3zWNzYq28fJHdp5vvVRh+ccuysdKNxna5WEBlTkklBozLYVOpeVMg55xExzb92c/XZhXXIqmzMSqwcpNtcXi3P+9WyZnYhjMHVQJ6QBo/J1qGAL0c3A4BkXBEhYEb9D35TRHI4Pyh/83u3foPD258cPHu+UfBU+Jt3Z2++dXd+UKh0ypFjD8agqjFxHyXfnfOXYtMoyiIxad6NRpbIkjQ/PYdZrgBz3h/AgKkcmmUyhZh0wLMKiXmgWnAG5R0Y3arnN8cHs3p/v2rCfBrK4u/YjX6BatvaHkE1GUhw5AjbMq1nHhz242ROQlwrjslh5K4I05x+0zuGdUs/fRj2965WF4epSxNHfXIOXOO1dNq1tumtrNFxJu2gIfQJegBPkJKlAsYVhABq0Ap0PBxsBiCGjtChIRqhBdK+x3aDbUSWgGaFN2H+bG0F9MRur3ZHU3f/2L9yDIU3AH/32L/76mK12KwZz6/2izFeSLt3aL0AACAASURBVNyohdSD0s299izJxVKurowogabLVUGOkhYIoU287rwFzElpRoLgeK3danMRFxdVSq4uCvDOfBAb6BjsKkag/vJzvqgBV6uQoQ0ggzOKaGvMQ0AoSvvqu/vvfOOWKwpfFIpmlrrVSrkzZlRCMNOsUUua2FQB0fsirXtT05Q0JhlGHixJLGM+dCvNFZGkg4NnEA6gQwCzKNgPoQeo6jsLQnuM96h5fXL7rebm/vhmUe3N9vbq+aSgv3f08atV2wA575/B8gMYy+yff+/u73y3vDuXkan1DmKIsVi18uj88q8e2c+6uOnSD34CTZh879vrh6d4EdvlOTpZfPBxdfdY7h3jwzO86opJ7aoEkTEpJjUCSLwNSQHwBOzQ0JwDQhCDNjcUeWREAxyDEFRhRBAAnne2bHk20hszLS0cN66pSu9D6cShq0uqSmpKKMIgK5uMy996d//1W9OupXVfrGI6X8DzC374vP6bD2RaFdJK20dJvNigR0dkkXFUYQ8eXVDyiN67mMwAjFm6lbSr9iouzjRFsnFFoXFloc6jCwY9sJKwyUuOZhxSinPGRCbYmuoO0b01jyhlFo6I/L/UvVmspdl137fW2nt/05nvuXNVdXf1RHaTlKUoMiVbg+0YUmwIiG3ZiRMkDpIAAYK8BPBzAD8EyWsekgBJgEQIkAfZjhxb8iRLtCxZE0lxENkTe6qq7qpb0x3P8H3f3mvIwz6nqimS4SAyQD50A4063dV1z1ln7zX81+/PfezI8paypgx7QyMwVFURMc6DBVMBUFE1TcJJOCbuWSNzFI4irCamrFmgm8f7WVZksDEZDYgOrVcIhgSA6s0aLoZduOHnf6p+9mWYNGGosxu7g0kzGxfNtzvYvk20bX765W25/+v18/yp//Y/D/sThEfO7iAsUHvvCKOlZZ8m7d71Mn7i8ME/P13fWrq6wS++3i8ThQFQlZTLy4Xbm1uXrO05Jc8FxAhti30PBaEniAwKIBtKFKqBc7DqoYtoBnFLnQguM61BVFEwMl4xcMTLFtqoi3b56JG+MHchVo+su1qE8bB88VqYjHHYaEG6ZdAboR8PQl1YStq19vhCCkRvEqINnmvvPeJbrSciARMpJ0N2JhzNu2jhIgg/M1MoelBUN6uny8dS4mA0nJOV6yvqooFNqHiZRvfK0SL2PdnaJBmz6ddL3DZ5Wp6fo9lmcmrZpDVHo6mhACEhg5BmOagm54pqurt+/CBnOLbdyBMWUxO2JFHaXpk1Jk1iGzUbi+RcTZXN2GSjKcKkKAZqlNESnqB2aGoRwSGiOdVBtJ169yV/+Hy9sz+ornYPyr1r+zuzanfs3Tew+b/TaNtaZYku3pXz36ZJM3rl48sHt+Tyy0WQUFeurNFVaAI+mi2VF5oiPpN2/xKe/p5r31xdXrQ0m+nqsq58u24dJLdchLNzuFxaqLQuJCW9POdStZ6FNlDKpuwIpgakFaoXYsGVgBhoZgB4gIBoyCxdpP0RnK5w1VuKGnvWFEmk7fzvP6qI+r7vYxfAp6P5WlSfnZc/+nLz6Ve0JDTgO/fP/sXvnb35jl4snEF654Tb7uAv/OmrO++t33y/bbu0WA2qOvZrV0ks4s6f+zNHP/uT9c3noQkYWoPWtJfYmyj3ePpO/8Zvnd5587JZrkTHqqjQQtij/X8b44AWv+tomc1Pt3xu2wCuFBRls4eMALSxrt3iNOGpNA9RULaKZwBUY12dPlBOtrW0A7XMLgWF4Kht18I5SxPelqKZ85UHqRsBr5gaZeX8hmIEoIhgNKv8WQ99QoIAMNPByzC4Xu++7Mc7pTycDtrnXv3J2d5sd1o2tbOvC7bvrrtrAKhxDfEODbA9PVnd+ZovqZkfhMlOaMYUSgCwFDUunMOCSOKZuiUPF6M/penCLd8Gv1wUXMKDi/FzB+vLFfWrwdVCL9dxZNWFIwxMXkF9VFp0qGaOcncXnSIg9gJdB5GBDRSAnHmPUAATdOL6lFKbhq56sNQkkCIGF+Y7oet52fc1xRCCG/FqGWaj9cWF++L78eGFmw7Dp57tHz5+/A8/0/7m5zsUPFuooVRu+eHJ4jP/avXglBJzSX23uOzaaljv/dyfufmf/Y3Rx59Hetgv3pL+PsnaG4N0ym3sOln3+8/s3vivPs3wI2+/Xzzq1rHzuvoSuUdQ3Chv/Ft6tbDzS4BeRZQ1Ixsy9902ykSwLCff8KefmG1+5JJBBJAnv6KWCUr9RlGSiWz25FWJXafMoKrMG6FHFGHO8kvJtgBsIpZblrxtKBmQZosk8tPBYFfh8TmTTXX4Ks1++JmXXpoeH9y78/njXfvUj/3M5OhgOqt2d0r6Ngnbt4k2NDSkXvnR4t3PLU9uVeNZOb4RxruuGmEYQHZ7DI6QTAUqLcZR2hVfLbuwxh9K1vl4X2R3Mv+Fn3v49z8TOoEH53RzRSoBKLadf2G/ON7Dxws8f2i+1KrEpmS0UHjmhAGMI3WRYoTss+R8hq4DGnQMCQwAJoNksXfq58M0qfydx8AsFen79xENB7W0sX3wFQ2ufvHG4vaDdPdx+YlnVrfvPvrya/7ijE1X9893rh2m8wVcmS5Oy8LQOWi1aKbV8zsv/Bd/8+jnf0rSnfjo7yEufBnKOqBrTAF46LvWw4V2cX36zuX7X6Hyxgsv/cynnv9R5BQ/+CLCCQ7fwb0fq5/76bN3vmh6Ydn9ZzOheoKjAnjqI4UAkJc1n0DIszju6xegn9LGn/rIZBS9Wb57866hsoKCseZtZN3IcZXZOM+gEiSGyLmdm882NANFBy6E4I/3xmvlrvk3b/zQX5zM99/94I1bn/2ln//JT9/41E8Mjp6pB2E+9VVB30Rd9J1HGwKQibQnF1/7/eWtt6pmUNejshw6LNE8WgDwoFl0DwSloSMfQl0VgzoWPZWRrq1X93C3rt/9+/8EBV74xMfgh1+8eO+OmYDGQt36ndvy4cOiqLBssBYEVU0QghljIGwIekJOECMYARCYgOHmLUkKvRZXPT543HLb1YTrrnu8alopjvfjldm0hLvn6XIZ0Xwn1SdvPvrSGzQZXp2fDUVWtx88eOPdYUoF+ubV58/fu+NWAggWHKBy6gf709krh4f/5V+b/vDx6u6vWDwpJiM/2seiRgoACJJMIngkaGsYeE/BLdqLD88+/4urd39z/sqfqw9/pnv4h/jwa1X7h7D352HnZXp8nxQ2t+gTHEieKGxztk35oFtQ79No+6Yf5kfc1TdEr80xByISWVm5j6lLqUscRUWVt4stUZlzqQqJTdQ2QaYb3wiggKFCX42q8uMvHLzz+M6dL/9vk53Zy88d/6VP/PT4+NX64KgautkY93eq7+xc+9bRBgDWL1fv/NbyzT8KtS+agS8qQkLIxVHCDcgkd8DUNlMU74rgCoek1VT6o/bknddD7wbl4BG+C2+8G0fV0LyNB+ac601N18S1tLBmp9FxSVUFJi6a3FkbC8QEahsKPyqIAhGwQBTtoqU+PT+GR2kw2Vl94UsD74IaP7qgxrvZOFWLDlFEpfTthydytWYEf7awVa/3z/TRYuHFi9Zt69kzCzZFx+ljf+ZHPvij18pXdq7/7Z8rn+Hzt385WKr3jv14TmWNGOzJmYQOSzXtHagZFiySoqT16t6XV/femd/80dknfgbnL60fvlW19+ujF69e+03YWLXgFpv/lFcJ24WY7OP4JAd6QpXUPx5v9OS1LUBETfKnocIiPXNk7UWi5IzNRLahZilZ7DVGYwbmTC+Bp47m6MEV4GssGghVVfpPvjQvBqNyMBkM9oeza8X+vhs2w3F543AQXNbo/QmizUz70zunX/yX0K/deO5CAYgqjKnb2Ni5YICgbNxp6pTNBDY+dJjNdTgc2MXpMrS1s5ruPR7vTJuoIkmXV3pt7v7sx+DWI3j9g+ALVxaovXFFs4ZiT6tI+UvqKKc1G3WEigkAJ4gsfQ/Kcg7x7dv07m1PaMyMxoaQND14ZOu1cwiIOmnw7ftUuHa5pkdn6fzy8sGj9mpRVkGjOF8YRYeMlYdH7a3f/fzoY9Pr/+mPFwft5Tu/iyh+55CqAfkKMWQJcc4iAQ0oIFbkogviyxjqUmIlfdtfnp588ddWJye7P/KXm5s/YbIqZ0vFwgRQthA2MNxsMue/5ckBttXabj8KyO3tP/Z5Sh63PvmX0EBl4yvKkaVnjkmTpj4pq6qqWGKLeY0qWozGyZKg6EcqEiBA51yAUFlRWzGgYgBl48q6KofNcKeaH4aDQ7+zUw6b+ayajIpvqtH97qJNub+6/aXlg/eqca1EAsAqyD2x3/jWkTMzU1aOmjpNURNrMhXLW64GiAWvy2WKsRnt+FDarEkC2MXydEW+oAeXcra0xTp5dl1CFeFEs+fdg1O/WBqCBg/oPToSA7+ZbBurlgQxsfZUeXjvIbIKKFa5m2rkCFZrXa20Z+ijqcaLK4ZkURhcd7lozy5WVxdQeEuCaOvT87ooYt+3beedgwb3f+GHJjf9+Wv/CiHWe4cUAoCZMJDb5k4KygiShWqmBIBAjnzwPoRQiI+8bB+/+6XVsj+4/AvTV/40hQpnL/DyymRDYAPcHlebDeNNmqZPdtuf6Hvx6YX5kQc3CKyNznzbA5E8JMjnmClrNt5V2TrnRkwJmFGEEm/sbg1og8tBRxTAVeYG4AbONxQaVwyLelQPdsrRbpgd0u51NxxNx+HZgzpsoXR/smjrFxdv/j72LUBtZiZJuRf20IPTBBwAKQMrQFi5l76TvkupT8xJkqjmV4oxnrm2hx7LwcXth0VR+qaOHvy90/XJJQXvDJIm55yaxr4Pv/U5mo1Dxw4dqMKqk6KApgEwiwlYgUWGtZQGiyStGKuiETMuU5rV/Y09VwZ69x4uwDyCOk5WDZtL7qBlXnd2sYxnl7JYUunkvA+zQZ/garGElEC1qKv61Z2DHz84f+N3ZHVa7s5xS04DSUi0WS0xQRUzthhNomkyzW4a8BHHHdB4eXH7S3Hdp0jzT/7M6JWfu1qdydUdiWmba5nhhn6bYc1b/2PZLm4CEm12DDayv49w/5740eYWnGoGlmZqc2b9bdeP83KocQJm42QpQRRMmVW/ua3IgBALoAL8wPyAfIOuptCEcljWk2I485P9MDsMg+Fw4G8cNVu5x0fKme8h2syMrx4v3v58SRmKmTWdHTo0EOVAzm/cx3OOwEli5L7lvk+x581irXLSoi5jtbrz4La1PCwGTkTaNXg0IwoOuVcFcwLkCdheuNb80QfCF0BO8jd3WGvpkBOw2boHNRC2uysqgqQkaxFmKD2A8KxWh3a5bs/O6fQqdAzPH+rFFVytu9iWiD1h4sTLVX/yeP32nbRaFTVB7YhcuhKOfUC0Rm78xWfXj95antyuJoMcWCYJJAJ7M80LLRmYbMrGEVIPm/Xf7JRBlu2+Cb3HtLhc3n3zhGbkD3ZefGX8w3+5e++fd4vHcd1JjJvBpKpm/AE8XY1RFcjSNecBNgI1InqC9rAn5HtDeCqHMRADNnvC70iWknEEjpY3qVK0xJAEkkCyDVNLDRDIKKAr0dXmB+gHOdRcGBTVsGimYbxbTPf9eFbU5dF+uTf/LoqDbxlteV/76v778eJ+Ma4tqUbmPpmLBkjChI6c29RTZqqsohojdx13HXe9pH6zHyuAiG7gLy51ulPuX78Btx8xJ14sw7UDPx7qvTPYnxY3r7k7DxcVHrOTrsc+alOKAxRzHWId1AdYR1utNv/DZ/a5CvzVU4wqKZE6IV1MC/jgsX9vSZNBX3okQuG0XkvbKmJs27b0fd/iYtGePOCHp66X6Lvu3tIxBEJWc4HoWOYvuru3Xk8sAVBFjJPEnnyLAOQ8INkGh8u5lwAcLWU3d7F8KG0sxgiAHIB0V8s7bz4oP+vqvdG1H5LuQ33wFcELFuWYJOVuBIOqmZhteLqgDKDgHDtHAE5sAyPafkixi847evIp5GgXk6TMnKJwVGaTaKm3zcEWNTFwAk6Q90PVLBN0AcnQAxXoa/BDKIYUBhQGLgxCMQzVxI/mfrIXxnPfNJNpuH7UBP8djA6+o7NN5fEH74KwJtGeuWMKKSdqmBwionNPKbJqKiIxpraN6y6u29T1qY8xckpgBqEuHltql6v1+SV0LZoRUUw9rDE0HgKsiCtJ4fBg9frbKMkMFEgBClbsE6Na7ZxEiC0Eh6x8eSVrt9LegbkUuWd1Bm+vrU/c9X4+tF5j1/PX7ignY1kLq2qYDdL5BVxcXty53bZXoIxVgD5qF11dA5oS3/z0jYvT2+vTUz+sZZNuR4q9Os8q5L3Lu5+5nWWacczS99L3EqOkTT5uT/WTRGpp8Whx+40Hk+dp8GlqPi7xdWQAMU6S+sQxWpIMo8x7CQTmCIgAnaKZEkKuTrYlbN5hQNFs9aAbbIwJazZg5iTZJJdZJQNNY17Xw8QYBRKDqKmhQgZreaAAvlJf4ybUGlc0rhz6euyGOzTZc7M9N5lUdfXcjWZQu+8h1L4x2swATbQ9uS+CkpS7iG2PwRmBqYCnbFjypNmd31+JfVqt43rdr9t+3fUxpiTMBIgUyjV03cViqY+gjd45KAguLviSyrIqrlbFxVI7Gex8UgeP4XTRVU5WK2/QEbWDKoC42/eFBdRQvZrhnfui6m7M6uOj1W9/AWaVmbj7Fx2osvSPHqsIGxSI/uZe8ti9dWc2np2eXbKwrZar2yftsiM23yExmELbdkkteBvtubO7H0rX+zJAEo2sMUrfIgCl6Lwzws2q6saeWPKSp8Qofa+bgBMRsbyHIrmI7tLZh+fvvelnz00O9mPa5YsPOCbuU2yjxGSJlRUsH16GZj6byTokM/LOyJRcHlvnz8kBgpoCmIKwZnN5SQaAmox7ZVZOqpuj05gt8aaRmxhYTQwz88vQZbN1cDX6GnxJoXJl7cqBr0ZhMA2zvTA/9Du7bji4dlzu73j6hiwNv53641ufbWaw6oSJk7g+UdehRzDVmMATkkOijTVeFh6wcB9l3aZlG9cxtcxd4qTMBbnCoBA4b0EXqRuHAsxMVE2cI/RoaNV83F8slr/7R7Tq6aVdvfVIk0QDGg+r8RAulpBE0RwhmLPE4knaiPdP12cL1khC0nZiMREAiF32AmYIDGgnqVPulutzg36xNk2eBS5aqBuYhnS11FWfAuw8d9TefiAhcne+Pj1XZ67ofdmlEMB5M1QWF7x674g2HuGqoKomyirM0kfueu577nuOvaQkwppBQgyaCORKH31w+v5tav6UCy8tzj4rvOi7Lvb5essoZdjCUc0CWiAlcGK+MA2OCrelM4OCPYF0mYGwSlSJGvuUyX6S8lFnKiC5LGBl2eA8JI9Vsw8fkWEwV5JvMDQYKgolFaUrG9+MwnAWZvth56DYmfvRcHe3eO56+c34Ht/p88ejLf8MwiIsqVfXJWwJEEyYQkCf7X1oMzfRXPuI9EnaLq3atOziOsW1cA/CwaAWCAoSEy9tNWq8qXHfg4gg6qoL5FgFixAeXQFYsW4NwUXxLz8bhgM8mKY/OINVX9SFqwJ6nxLrcoksvG6jg+Jwzo8eW98zmCWOImHU1INm9fh8tVzJeqlgoSySp5SpPTFBXVSfusknp93DM/IUEJYfPEQ1I+bLVbtYU+N9kVLZQ1GACxsVUHBKTmhjKJCtUnRjkaDcR+l7biN3vXRJetHcu89tCQaEFhaP+0cn7enLwa6tu5FefRg5cZ6US7aD39h5EIKxgQZ0G+cOh2iQCClXBaJKsl1lUGPOokgVNk4ibGkjkwRRYLbExoIswNleY1NRkIIzCwglUI2+dqF25cAVA1cNqBm64STMdsv5QTXfL6aTZuRfvF4Nq5xDKcD3EnTfJNoQwZW1sSY01yKSKqvr2RUJfeYebJrHOdqMVaJI16d17FexX3G/1hS9aEU4TmBsFiH14lZ92zRlNSy1ZwTU2UCihEFV//DH4u+/0betXFyadyX5+MGJI9L3vLtaR0LojJgxKaj2bYtmJOYQ2nv3QVhNehMIrvLeIrfLU3LUO2ORxQBc31ZXiWNUhH7dyp37abHolovMowKyZGJ14Qppry55lQiNq57WDn0AdGCmwuqJyKHDTWG49alXUxPlGFPbc9dLF6VP0qcURQSVTVQUEDS5tITVxepi6ZtBK5P+rDNk2JhLbZHksBGCqKAZhNIRYZ6CohqQZVuGlNgjZSdVEeVcgbJlgHMWuQkr59ozX6NJRUAka4pQDBXI0AGV4BvyDYUKixqLxpVDV4/9cFbM9ordA7+37+ezclTePK5nQ7fdEvse6tFvFm0AAOiKgyNjYOBERqjOwFg0evLOCHVrbmpqklhFuFfuUlx3/ZL7laaOWILi0HDW64LB2IRBoAnD+Wx5dhEYKl8UAkGwvfcI55NVXPmrlj75vFPT9+7r1ZUQZavycOMgFgE+eGxdz8LEigb06gGp2bv3oxNF9UVILMvFEtXC3pR3Bu7NdZ/kmU9+4u5X340XXVRRAOlklbp1iTAfBhukq2W8Wiqqtqs0guVlm3rzTqLvDdHQqaEy+zJwcM47IspQjoz1MwPNxISUuOulj9JH6SL3kSNzLymqJBFGBENNyDF1CYc74ne7FSCImebpZu63IW5WHGELSSVCSppR4bYhQaMHUrHNHSrKSTiZJOUkwpqSccpLiMACiS0lYMmkcjAjM1QgRQ+uIl+Tb1xRY2iwaHwx9NXYN9Mw2S12D8P+kdvbp8noaN9f2w3fagP+TxBtBuTc/NmX7rKaJKfqsvAiCTlG78DhRlpvoCLCnJJqAu2ka2PbctdajI7Vg2uAJov1qUJeWrLFagl9dEBhMMDxoC0RP36T37598do72seWaO7D47duBREEVxWNNQVU9erRmR8PwJideUTue1AIb9x1hWNvNqj9sFk8eCSLNTMTYLp7qo8ultxr5Nu/+SVOyTtPhKKiBrGL1JqCdiUhQjMZLVcLJGPVvrPUqpLkj9wQ1Uy5lBi8JwmOPBF5RJcPGzHd4B2TcIwak/QxtZF7ll5Sl1LkXGsi5K0SQbGimMawv+5cyNGGGdwBiHlpBgDzoMqElJ2iy0sNSG4rilPLurTsnpFS7q6pJEkpn2oibMyQFHN3TTZLMZiVmUreqETfYBi4YuCKBoshhaErR76ZhvG83Nkvd4/K+UGYTuYzeuagKIvvYkL1HUcbACBNjp/VMLX1g6iGJl6NPJMjJJddlRR1+83e5A0cte+l7zT2wAwKAWnANLxqlwAODdkRHUy6y7ZUpUFRVL69f5rOF5Q4X0+Fwuntu9L37AFFuVtzu8QyFJ2mZctdryo2rIpRwX0qCMpshhdldXnpxk1/uYzCWBYCmtZrRwRIGhMqJEiMxp7YVFV6ZjW1otTEbR+TKqBQByKoAtoxBjTSXCVqSq70UjgXPHnvnEPMBgPwxGJRsoYsJYlR2iRRODFnfayYKhGiKUr2vvMVu2HPG1vyp6JJysvzW2NZMcpi7iSIIChZAgcAAqBi4AtpV5zpuEklKSd7cp+qGLNFocSwwc5v5q0kGNRV4BvwAygGWDRUDLAY+GocmkkYTsvZXjE/9PN9N5uOJ/6FIz+u3cbF95vdod9hQfqN0ZYTMnOj3fErP3Hx2f+7ExG1Qsl5IEeEAvhU3iJmkn+wJLGXrk1djymSiUM/NHfQa71anAcwI+M+nd+5Py3KelBfnZ2tzi8LpTJGIEQjA9DgJp84vvsHX6k7VIfW9lgX6j2j2sVCTL0nXXedt/KHnrU3T3rRmBK3KzGJwsSWAGK70phADcExazY7hKbk2DMqS0rCCcwAXJtAlVzhnEaRNmnSgnklGo0U0BuYGgirT8F5R35zmWYO9wb8t9VcMDNz0ijSM/csMfe3TdlACdARVkg1hBqaoMElMS9iG+9nRDJURNjYlUE2LRIUBiRBQvROmJ2BIiqCkd/5+Kc++J1/rWySTNhSnk1sFqggMfQJU1I2FEMDl3H6QjnUBugHFIaubLBooBhQNXbNLAznYX4Q9o/93iHNZvXEPbtP8wHRdqn/u4qtbxttm8fVw70f/qnTz/3z2F8JqyR0fpMg42aiDNlma/NX0r6XrrWYSMUTNugPoTy+vFpyWjnH9XzPHq4ULJqtuxgEiJwWRbMzCuT0YsXMlvTRF9/CXlICA4QqzI7nNq3To4XoKsZo4wpHJbAMjvbP/vDdGEBQnYozgGSqFtuWmhJIImk9HMi6dWIcuVsupXShrJr59NGH90Ek5y5syn3C4JNRH/tVW6r6GEFNAJXNnIJnDTH5IjjnxFGG4OG2U2GmtrFtyQVmbkYIR+WowmiCaJ58AVgrVRgqC04wI63ycWNI+d4GyoQ9MzJQBGYDZygISceHO5fnZ9qzIiiCarr72c9xMk0mbJye9tWyWDIy9LyxdgRAA1J0gs5cZX5AYej9wBcDXzRYDrAau3oWxvOwe+wPrrv9azjfLSbF9T26NvWB8LuZvH/30ebLev+TP/7+8avpnc/HyOzAEaBTQiPaLC1sdlbURCCx9RFiRBGHUICbYnFdisOHZ79tZuDc/Pj4wek7otCZCGsgVygAWh/I6lIulsxCCHq2JAMlNEAdeSxo9cYHkcWPhwk4PjjVh4oOu1/5zXTVoUc2c6M6sLGKqQph5AQxKvNq2WIZ3Gwojxbeu9h2UIb6YGqPH0EPCCQsLCCAwpIMGeH8kobDhnWtXTJUL+ZFNan2LAU7T3lXDxEIs3/91mVFNl4DKpkADxxNEqoSqEMowYYaJlpNXN0IqsZWRBJrBmiiods0ViwDu7NFmyRQAudRBc7uPEAEAVAEQTA2iZ0wCCMnTUl4W40mtsiQBKNkGRMBkAApBqESfePCaGNLla/RauKbqR/Pw+6hP7jmDq7T7jxMq6NdfGZKldu6m36vdei3iTZENIT6+MYzf/7fef3Dd/XqNEVFBCQh2tjGGaAa3KckjwAAH15JREFUsJkoZCQOK7A4sML5IVXXqH6hg+bq8j4aF4luffWtWsmA2MxPGj+s08kVrNurDx4GQDMLPpAqO/PeEQCpwcnVxf0VECpAe5asLqVxsedA2BXGEIfznf70MowqW/V81ompFB5KzykKG4Iyt+Eiwazxg0rutHGxWnzpdU2KPohhSqKACtkGzYuVd0/bFyf7Rn3khXTJiXqOUmkoHAd2DpHcxv19s7oFuqUqyOZRYTVGZlImMEIIhDXglN2eNvs0mqxlnS7uEnesG9/Q3L3MZj45lAWyXg2AgdnQgJwRomL+kquyaYTtScbMkttpiS0zY9iyiygCOEMvGNSV4Ifkhy4MQtFQ0VA5dNXIN7Mwnhe7h/7gmA4PYX/HT+vDGbw4p1FpT7jgT33ivuWOy/cUbQAAaMVwdPxnf/bky39w//d+TVKXGRZISgBglKXyrKoGrJYUBL1hiTTy5RGNXnXDFy7uv8vdeYnkDYkQfbAoGe9H3vVZMcOpCoFYkAhA4jAE78NlT4IuBFdXadGqGIta7ZlUnWXsbWtp1JTpJMHZpfPFWlnQbJ28BjZlAkODUQnrvnzuOHmWD0+iSHaqQzQBEMO8hK8bmJU9OFsfXXvBkSncyoB3TsqxDwX5gsgTEhERbkzLADbRhpA1syJZamXiVECFCAvCEmkEfl+r6zC+4aazdffu+uwWStSNwd6WNk65cYqS3RwI0JmBddGcQ5f98oY1t13q2NiEkTccI2UxZkhikTEJiiIDCpqBM/SG3lwJfoB+SMXIF40rayoHrhqHZlaMd4udA39wzR0c0u6un1R7U3x5F2al0bcoC77n51vsJRgiwPD42Zs/+wuXH77P73/NuFcx4Dwryd10EMioIRT04EvnBlQcuMGncPgjicYf3vuKpmWBPoDRVoALBuvLVWx7n6UU3JtZYdBZKjH4HhwLsxA5QgCRyGwAbjhgkbhozZQB3GVrLa9Pl6qGkS/PrtrUKxqo5gm3qiJaKeqKsPuJl9Zx9fgLb6fEaiQA2kcDh0jqvCqZIYADM1D3wf31zes3jSKnW6A9MSSWFMUX4jyic0QuX6ZPVF05sdjQbZXU0BRNCcyhK5VG5HetuabTm+7oups3+tqH3cktNVZVtLy5nElHCJrX0tHQcjfERMlQ1YSNnJHnPqom06TMIKqqwFmMIplwT7ksUERBQgwGpVBAV5FryDchNL4cuLJx1SgMZsUoh9qxOzz2+7t+PNif0qv7uNsAbQoWhKdM0683FPl+RdvmtbI+/rGfXj188LW//4tXd29Jn4DVRPPKnQLY1rPX+QqLgSt3XfMJGn4a6hfv3f384vxrQa0EVxo4VrO08ZZmVU0ZRusUo7I5vfmXfurkM1/mRSveo1mzN5l+/MWT3/uCJ2Bh50yJ3LjpU8QksW1FdXVxxSkKqMSYNLtXmDk1EyScHewWg+r4xz754n/8V1anV/3jxa3Pfnlx1bGaZngf4uxjz7anbftwBUYOyAAfn7d7+433z7OsQR6aRGRwrD6Z84gOyCnm7yLC1lEpk/HRNC9OIYBDCEiV0Zj8ng1u2uR5d+0F99x+767ad79kZ/dVTO2JveSml6sGYgaGhFs5+eZPCwiAopLWw53ZxdXZptNhJpIpzMCCiVEMBVCQBEnBA9ZIJbgKfUW+8UVDReXKxtWjUE/L0W4xP/QHR3RwXOzvhXGzN8VXD2je5LFUDiv6CBT4e4+zbx9tAFBNdl/82b+e1ulrv/pL9vAh98mSZAKOGhg5Cg5cAcWU6j1Xv0DDH9XBy8uu/fDOv6b2tDIrgSokp1u/TEREVNbJ/tzM1ueXaIBmJ197L/a9FzHvh//GS33hThbnvakCKEJ7diFg6B2WQYXt+tTdPkvtWkw7jmiwSb8MrRczU7Do6bRb3L/9zrUu3X7t9Xv378ZkMYsHwRAQ0V1cLKVVzdR786KoMb1/cu/F51807UzN9CGI5b0fcogOkAwpZ7FIG36CbcLGaLMehgFdgzQkN8f6uoxf8AcfDzdvhoNq+f4Xzj/369KvVDYr81vbFiQyVUQCytgt2yDdMn7SFExBwPh00a6T6lY9qcYCqiiyCTUFp+AEgmGJrkFfu1C5ovGhcb5y1YDqUTHYCaPdsHPgD4/dwTHt7fnZcH+krx7TTpVl2Rvvmu/rRfptqTMI9Xzvlb/6HxSTnTf+8T9a3L2vvaVeNSmAkMugshHWhzR4iQYvQ3OjF7j95j+M9786Em2MAqIHR1ujgJzwAdjV1VUmuxOpQ7d+655T4uAg4Or2fZgNi91ZL2whgPO8bMk5TQx9AsLh7iQ9WoCCpAjgkhmRkz4CkmxG5fb45LwTTo8W7/zO57/4a7/Vfu1h7IVzVzo7S4BLj1swL2UIzUiu2CsWoN0l3zu73Nt5NhErCfVnJr0wYAIgBVIkI8LMAtxQFLKCMgvF0KNvKEypmkNzqKOX3P6r7sWX6IVhgrOrL/326s7bpE9AIJAb/JZ/b9p2YDd93ywkh63lAahZ161yCm2bngDKhlKPYpiPNIXCsERXoR9gKKmsXNG4MPBl4+tRMdgpxnvF/DDsH5VHN2A2c9PmeAqvHLhpTfjUfX7rUvX9C7jvyOeq2Zl/7Of/6vzlVz77f/3yxdv33brQCJwi+IBuQsUBVM/i4AaWc1W5+8Y/OH/vnw3iaoyhyFXclmptuTNp4giVN4seflBJF9GQVShKZO5XLZ5euFsnFhMHVzTDEl23XmeBqiZb3L5bxA6VmJmzhB9FAIrdSTTpHl+hgq5TMhPB9sHF3XdPRj2y5RQtd+sdgCMmIG+J4ko81UXRgEKJxo9g0ZRV/QmDUuE9TI8t9rCxhyVyZgSa+25Iig42554zCugbKsZW7eHwCEbP4vzV8MLH3Yu7xdy3b33t5J/8smvXYgC5iwLb4achKzi0TKMjtKy0sU0plrWbJgJs2dQFMhJfMzdxq+lQ84KFUo2uIl9jGLiidKHy5dAXTahHxWinHO8VswN/eOwPrsFsx4+K61P91DU/CB9xr3z6D9/Pww2/wRz4G4RymwVaU7W4WN9/6/2v/Mbn73/lbiGNdzODuRZ73IzZy7K7f/bw8+vXft2d3NoJJXYRDIAo5zUiYkXwIaTlevtb59fBG5QukBplOnhGNCB4Q9LcG8CqqSNzHxObJocmGypO8mhgPpoYKKJsURsCpoDmaedjz5+8d79hcIXr2nbLqvUeAmJhGASDb+bGJYWqmuxYJ0XdXOp6dDQdjih1b2P7NvaPjFvhqMZoQmiYtbTkkLyRB3JAwcIIqwnVu25wUExvhvnLzbMfo1ePypsVXbzzxf/mb9OXfwc5bk8P3UBQEYjQOQQ0R0REBIoE4NDMkujGp0pNldRAN24SuD0WAYAUnGBQLJRqcDX5yvmaiqErKlfVZTXyxciNJtVs38/23d6hPzx2u3vVoLi5jx8/8rV/YmppH/3c4UlB9IOItm98bHvq5ztDEVCNF2l1vjx7cHl11Sv64Xw8PxgOx94XeOdzX/jcf/c/PPr9P+Q+mWHWoxK6bAUGRKYGCFu1tXlCFzBAIAYI4BBnR0eruw9QDVURzIXgkCJrRDMwQQV1Rp68jymGSVNU5fLknMVYVR1mC5RQFAyQRLEolc0pGKnlgrosvC+IibQGHIqViE2oZlANKGCoxn5+A4Z76vraXzm/jOs7sHrX2g8tnqm0ZonyAADA0MFmeaREX2M5xWYPB8d+9kx1+GJ17WZ4fr94thJ88Pr/+F/Hf/L3Qux1S7DfHGyY7+VNnUsEtBkqbIJxs0hlplu1jxoa5BwRYUMVcYpBqVDKA9DahZJ8HYqhLwehGfl6UgxnYTL3O3tu78AfHPv5nh+UrxzZi/uu3NBLc7HyJ1BLft+i7Tt7DAFE3//Vz7z+3/+vD976msQN2zpDAzpJQC4ldsEbQdf3ahg87Xz6467tL7/yQXABUB2AV4Oe0SFVwReFsa1ibI5ni8tLSiirGA2ruu7WPXjVCl0qtDc2lS3fwICUqBwN4jqZERCE+Wg0GZ+/c8/PJlBUdqGkA/QTxtoVA+8n+9deWKWuOjwevvzx+tqcSoHlh/Lo/dXZsl2eSntf13etv0+6JhICMaSNd6JrMAwhjKDZp+kzOH82HB9X1w+b/XE9R5F7X/yf/078zD9wqQXNxo8fpaFa7hhvSEZgSIZPb9ksEcGMEdyUI7rJB7Y7p07Bqyssz9qLhkLjfU2hDmVT1KMwmLrhTpjtFbN9t7cf9o/CzrQe+leP3TM7GNzXsYn+/xZtgNalt//3X3rr//i7V/cepJ45sbEawDKjXTMUEUEdmZijYIG9mbaoDnePd5cnD71SAEJUKrwi9UmiaZgNUky+Y2kcX0qeMbo6hBu7dpm6h1dJARypKTinACag6PL+dzbDQCSiiqhBGgA1VIypGVM5Mt80ox032q12jqc3rzcvDwc3aLbXXT9+sLr7xpu/cXn//XLVBo6d9acQL9FasojAgIiuhGIM5QSqqU32/MFRcbQbdgfFJDhd0PqdL/1Pf4de+22KMU+5bLtbsL00nj5Pjb9xa0wFeUS2tarKCpxtS2QTahiUCvAV+EFWc1CoXdFQ0RTNtGqmYTD2072wf+R394u93WI62Zn4jx3R4Yi806+nKvxgo+27dvr+f3823aMiPP/v/ZXl+SX8yq+tH56lPqY+dTH5XDOYCgsVzg+buGy570BVyAsoq11cXRgrOApFkVIfKp8U+rY3gHi6NNOewIeGbZ3fcuuY335g5jZrHaoAaAKaCwJ0gJ4oiBihRwrkh4gNFWOqR0UzHTwzYymIDsPObnP9qNnbHV8Lw+s43kvHx6vp9Gw+OZ2U777x6/0Htz521h+JOzRypj1yh8DkPZSllJXVAxwOcdqEaRMGQfRST+71n/1nb/+LXxxcnYj0slVg6hN776fVH2xjbNNP3Sxtber3P7aOjhunNnKGwTAYlegqDDUWAwoDKhssR1SNXTUuhtMwnJSTud89ooPDsDsdTqrDGT2/T/NBbup970Lc7yk8vq9n20f+E2wfnL35v/yf9/7pb6wen8c29n1MKSVNoiIsYqaImtvhBq4MzJxMvaEzRHIOidCAVI3S1oou+6o454SzqJpCCMoghtnREMiBkQFlcYWhR19WZZOiEHh0DZUjCwPydahn1Xj2wk+/fHrGvR40z91orjX1zM0PbfeQ94+Ww8EdiF+S06/2dz9ob61OXrcP7h0twydX9fPsZ1CUrm6oGkgZtHAQUEhiWlC8bOL9dOsLF3/wa3h2G3hhqmwmWX2Zm2f2NIQ2hpEfBWzBZrkqb+BteivwhJhKiATkjAqg0lyJrnK+olBR0VAxwnpCzdQ3E9+My/GsmO1We9f87q6fDiYz/8ycnt31w5LQ7KOTz6cB8ScQFH3b5/t8tn3ksXp/9uJ/9New704+89urx1e5Y0iKMcXcl8z2Z2hoiFZ6X/m4XGMImrbOcyLeOUAnziKAJcWtSAdg8y3PH+CmRsutjaLIsxsDAl8UgxGyc4ShGJTzI5ZArraiCuNpOdo/u1u52d7oaL94rh4fuJ2deHjM+3vnwb0Ji9f40Vvt7Q/Wdy/W93tYLnf4tdHlr1/yjQVdw+E1G+6mcqxYegSTXrqL9uF73clb68WHjhdOmCWvOptuaQtPwGtPkVm4Zeo8+UXMUxFTQDMHSJj38MAbONxIlIL5EqgmX/lQuVBSqKkaU73jBlM/mPjBxE92/Wxe7h663Xk1rvd33LN7cDSlwsH3TUL0XT4/kGjLptVAMHzu+MX/5G+Ewu78438JANhCTJBdcBQQTUAxd31FJBTBkRcAJFIxUCFERK9IjMBmhkBg3tC7IKoZfiSCuHGMd2aQDKjw1CMJIhbkqzIMRcAVRTHcGc2vrddaVEMajHA0LSbHbv/QH08Gx6Hc4aMbfHy4mo1OKL4mD17v7767/vD+8v7V6nHXXab2so3LJK1gemeQXtP70DFJKpKSigJHU26MS4SsuhWVTHwRNbYNq/QjDr3fKLzedPC2qKN8kjkAB+gNAmAwzOMzRF9iKNEPXKhdqKhsXDl0zcwN5344DcOJn8zc/KiYTcJ0NpqWzxz46zuwMyC3nX180/XjH+jB9h12d7/rP8ETPo8hDJ6//sLf+nfN9N6v/Q4+JugAEIwIRIBYYkJRy83YaIguJXFIW+85lJ4FkJEUEMEBoCOH2SwS0MABkhkheAC3uZBSQPVU12U51kTSF64I6BpXz1Sqqhm4yQxnO366Xxzsuf26OKDBAR8fy7Wjq1Hxtp1/sf/wrfXtDxZ3TxcPl6uLtlvFfp24Y22T9sKsbJAEWAV16VhgA77drNxtiMsZ96QgBmIb04f8jj4xtsrv1kdaXJtSwTZ1gENwiN4wABRKhVEBzoFz5AsqKlcMXTmg0Ph64utZGOy48Y6bzsJ05qc7NN8rBv5gp3juEK/tQOXhI3OC7ZjgBxxef+z5wd2kGXBphlQ/e+OFv/U3fVHc+ke/YecGSEARJAmYV4M8cwVjNgYNZZX6SJQJblBMmoBudbFGQERCIDNSAciZGTjEAOhMiSwQOeeJ/ADBub2ZaeXbEAbjweFuu8JiPCpHU3AzG+/C4Q4ejemoKKayv8/PPRPns/tV+mq69YXu1vsX759c3Ttbn3XtZd+tU0psYrGN2iVJImqbPTk1EeGto5DpZqzO2WZPQQFzsrApLbND3LZbDvDH0EDbLyhucjUDj+SRArgSqSKqzBfoAnhPrnDFwJUDXw1dNfKDWRju+9Ge29lxOzM/m4bpuBq4V6+Fa1OcDMnh91k79L09P6ibFLbircyYrZ975pl//68DuLu/+i+vzpboHERnQuAQDJWAWSbD5nSxBO8tJiBCQo2WWA0NnXNGGZAiedBDJOBAK8yZDRFA7caj0dFOWkC3FOQB0gCbypqxNrth6MvxmOpZsXMkk7EdVcUhTfbTs8d8ND+fhDt2+oXle3+0eufk4s7Z2aPL9WLNy8TrlJIwm7KmPknivPqZBxmSQZ0KqhsYjQByjjZBNZBN82ITavp1Sy9uq1d6cuDlaoAAyTBfoA6pAJe7GzX6mlyJrqBQUahdOfL10DcjP5z64Y4b7/vpvpvP3GwcxsWNw+KFHTiauMJ9S9zV/8cH2w/2bHvSnc4JSfnM9ef+w7/RjMbv/t1/Wiza5bqTtFC3lTkoSGQHTtoERsobVVBqxQA2m15IjkjFFJwry4hIscllGqFDPwEaxHVBUBaDAFS4euqrUTGZw3g82J2xr4vdPZpXfu6Ludx4hp+51k+a23751fV7X1288/b5O/eX91bLq7hctv9Pe1fSHOdVRe/w3vvmqQfJspM4lZQzFFSxZcOeDVt+ILCi2AAFVAEFLMhQIUAAE8chsR3JkSW11FJ3Sz18w7ss3tcteSrbGWwHdEoLlUr1St199N737j33nHJRNrNSyroNWa+kaax121XrAtK6HLR8EnF+Vk07G+xcNpz7pOvCtMEIIgLLshm0Wd+0FPa4kg0DKUC3qxlhQ8pDHaD2SYWkQ2Vi8hOOMhWmOi101uWk4KzATkF53O/gGxfVRkKRh7y8gTybS8F9+DrZdjeQ2bywsf7DH4jxtn72W7t7KA1onp9MYSENCMwaJ6uVZY8OcdljxdVnZhUCou83/aybFfs3RoYjUAYr0joX9mzlsQm0DslPVNqjOBcT6vV1zGM/8Xldm17Tu1S9crnqJAM9uza7/sHOzY8Obm1PN0cng/n0uF7Mq3oxr8uyWSwdpyyKQNWAK+nVgtaibdpnNTcOagVdgxxcH7OduXUZ3u33CLR0eG53MuffK23uJAkpREZiYAbUyIbYI2XYC6k16YiUn3FQcJSrJOM41VnXFGucZJCGeReuXFIvFJR6oFhaWj9PeHS97SvBaTVcxE5OBr/6040f/Xy4PTg+Pq7renoxg5PF/qe3F/OqWU00ATklKwiQIKIW9AA0UeufaPykqsWiEWXY+ElwwXhxgyrpdhoOGhVRVsQvdRs0Zi3DlL3MdvvVldelv3aI0w8nN985/OTDw5uD8fbJbDibTebzWVkv6qq0Tdn6sYlAq75oHfugEbFiGwsg4uRLjWtlCtpVOPyyuSStdMjp2NxP0AK6gxKRBQmQEZWAASRBASIiRmVY+cQeap88n7yQTay8hLyYg5SjXGddynuU5CrLTBZFiffyJXXlAmY+MK3O5lN7/PbDfupH5z14qmw7lVbP5gd/fO/Gj3958PGt0Xg0O54tZvPjqlw0tqxcWYpAWFzzEJgkQE50HDclIHtNQwJEJmQTEPtBmkW9Yjq27Kc6yk1U6CjiuAdxaDq+11cSN/HG4vU3vY21A5xePbj+zp1/fjC8sXO8N58eVvPJol6UdVU5j3dwdmiNm5cV62xKxVlGogWx1jntWXdCNYLWtrVl2zpWIACJZWcMsxwiQUAWIQtKSIk7KIkQmVABMhIBCTISa1QhcYQqQB24GrIOMg5SijIVdVTW0XmHs45EURjzqxfptRdVNwZ1953j/mvBM2fb0ztJHdqH5MD0vv9d1c9v/eTX8v7VWgaliGas5w3VlQUrFhEZ0CAwoQYvEi+aWUXkgfEufu+NnXd3jF8o5TFrMmZRB14nDfOeigv2c5OlnHuqQE5ttDH/9nc4T47q0fW9t97evPr+/mfbJzuz6bCeT+qydL5/Ig3adlbTWfeBm2y3gmKp1W0DtQ5rUDmxrgC5Q3Nph+Z0VK09pfN2ACREFqf3RQ2o3TMZEgMpBAJSRIyKkQmZUBlREeiEdIIm4ihSYcpxoeJcJblOC04ylaZBqi907ZsvmwsZaXyQyf3zh6e0t62wNGcXQEHbTLcHt376+60/vDfcujMajo+P5/N5DczlohZhZINoEEMV5BQVdaPFhqRDk3VtBVFWCGnt+SqMdZyrKDZRrBNfF+z3MH8JLl6xRZ+9AKU8PvzoneG1q59fuzXY3BwN9+fH43q2qMt21r9NVAFLth0RbQStkzZaEbu0TnNDLlAB1IANOHcTxFWLSYAEwZWdAZaTt+Se/dEpe4E1oEbSRAyogAhRo9KoDCqNWpP20MTk5+SlFMQqSnSSqrygJOMg8OMoyaNLffjWZd2JSRG0A+WPwbVnvrc9dbYtj1REl5Mj9WS29Zu3d3/3l91/3RoOJpPpfDyZAuq6tORpaTRjprnAoC9hTkFOOiAvVEkaFh3URhtf+b6KTNhVYY+idei/AmuXKYyRSFDQghUhLKujTz75+M/v7Xy8ub+5fbS7U5ajppk2jYtCcQ0QK7aGlm1OGeuKte3QqItscQHQ7UWzjSpwbGMERqD2U8VlYxfJfTnDUVQa0AB7yJpYuSgMZEPakNbkeeSF5GccFhzmKs5Ukqg49PI4TP0k4Ut989qLficmFosIzkvvMfH/yLZljek0phMqO7r22Y1fvLX3183h7fHmZ3eqGtEyaQMQMuRG9zHtQyfVwTrpUMWBl2UUGh1JmFJccNyXtVex8wKZBNhYQsI2Lgpk9aRuxS6q0Z29G3+7vvX3myd7h+P9vcnhfjWbNFJbsdJU1tZoKwuNbezSVa2NiHU1Duc4v2xo2mUSHwoQAjq2IbbJo62riguOcYJy0qAMsAfKB+W7GgfqgJRHXkBBQIFHQajijhcXHCQ6DpMiSDPuddXli+F6oUNDyklDyLWLH7e88cyp9gzY9lAI1OPZ5tvX9t7d2v7H3uDmqJ4ScIA6Fk7ZK0ynZ4oUdaAinazrqKdMTkG36mxgd8MEKaJeyWdW6or2fGmj8VaO3BbrWbm/Ndj6982DzcHJ3tH44PDO57tHByOjtNhF3cybZi5u27MWpGlnaMFacAmj9lQbg6vuZ5tbg8hETK07MZ9hm3LcAhWA8kAHqH3UAblxYj/gwOPAw8CPirzXz9LcTzK+tKY3+n4cslpGE7kynSCcbXc+D2R6JJ4btrUxALY6XAyuHXz+wd5iv7GV11gfKFBhYDKjE6UT5eeUXpC4jzom1qKZ71rl8f7VnerHiq3LZj6aHd0ebv5n6/NPd2TBh4Pxzu3d0fiwLhfUIAKIrUUqxzkLDYoVqUGaZZbj2YUJgIlcx4mRGFAJayANrJE1Kg+0D9qg9siE6PlsAqW18o0fm7QIe2tpUui8CDbWok6hQh8Vw9lcjoe+onO2PTEEnEG8VFKfNOWx2BpFkDW48hMbJG2XSZ7thMaTvoDVwPCqEOVEZ9W8PB4eH+5NdrYORgfj6Wg2nVQHu0d3tnf3dvaqRe17iVaGEMHWja3bVANoLRac3omIERlJkSvSshHlo/JBe6gMKrLUWK6Uh0kWd3ud/lpRFH4YqTjWRR50OkGSKq2dDY3bN+VxpjrP2fZlcVcoNqz61quRDTzLmMfH/Qw9s4gIgFiwVVMt6tlJeTQcHwyGB4Oj+bQCq2fT5mQyPx6fDIdHk8NxvbBNaRuLFl3alRtoISJWWmvFJg6DNIzyKMyiIAmj2PN8MMZ6HsSxn2VRloVRbDxFrJAfptLGU6HlmXfm7l85Z9uXxz1/3v2qrC/AtvvXecQiAiLSNLau6sWiXMyrRVnPTuazaVmX1rogF6fzWF5HiZCImVEbYwLj+dp4ShulNRutlHKMBDwdOVhFpD3oT3nQmN2978w52756PEDa/MUWkSc/guXM/YPa2uHp7nvPYrjcefEMD/Du1e5Z86Ev5hvBpMfBN41tXyee3VvxCPHZOdvOcY4nxvOlSDnH/zbO2XaOp4f/Arl51CoYylgIAAAAAElFTkSuQmCC;" vertex="1" parent="7">
                    <mxGeometry x="530" y="130" width="207" height="201" as="geometry"/>
                </mxCell>
                <mxCell id="16" value="&lt;font style=&quot;font-size: 20px;&quot;&gt;Cookies: XX&lt;/font&gt;" style="text;html=1;align=center;verticalAlign=middle;resizable=0;points=[];autosize=1;strokeColor=none;fillColor=none;" vertex="1" parent="7">
                    <mxGeometry x="568.5" y="365" width="130" height="40" as="geometry"/>
                </mxCell>
            </root>
        </mxGraphModel>
    </diagram>
</mxfile>